<svg preserveAspectRatio="none" width="100%" height="100%" overflow="visible" style="display: block;" viewBox="0 0 25.5136 25.419" fill="none" xmlns="http://www.w3.org/2000/svg">
<g id="Grupo 29">
<path id="Trazado 183" d="M21.2601 2.316L23.4601 2.308C23.7336 2.30068 24.0057 2.34956 24.2596 2.45162C24.5134 2.55367 24.7437 2.70673 24.936 2.90132C25.1283 3.09591 25.2787 3.32789 25.3778 3.58292C25.4769 3.83795 25.5226 4.1106 25.5121 4.384V23.451C25.5141 23.7077 25.4654 23.9623 25.3689 24.2002C25.2724 24.4381 25.1299 24.6547 24.9497 24.8374C24.7694 25.0202 24.5548 25.1657 24.3183 25.2655C24.0817 25.3653 23.8278 25.4174 23.5711 25.419H1.97111C1.7024 25.4175 1.4368 25.3614 1.19045 25.2541C0.944092 25.1468 0.722133 24.9905 0.53806 24.7947C0.353986 24.599 0.211643 24.3678 0.119681 24.1153C0.027719 23.8628 -0.0119406 23.5943 0.00311247 23.326L0.0141125 4.145C0.0441177 3.65512 0.25831 3.19472 0.613695 2.85621C0.969079 2.51771 1.43935 2.32615 1.93011 2.32L4.24211 2.307V3.664C4.23085 4.1174 4.39716 4.55726 4.70558 4.88979C5.01401 5.22231 5.44014 5.42119 5.89311 5.444C6.11801 5.45748 6.34334 5.42593 6.55589 5.35121C6.76844 5.27648 6.96394 5.16009 7.13093 5.00884C7.29792 4.85759 7.43304 4.67453 7.52837 4.47039C7.62371 4.26625 7.67733 4.04513 7.68611 3.82L7.74011 2.313H17.7871L17.8271 3.764C17.8321 3.99519 17.8836 4.22301 17.9785 4.43388C18.0734 4.64475 18.2098 4.83436 18.3796 4.99141C18.5493 5.14845 18.7489 5.26972 18.9665 5.348C19.1841 5.42627 19.4152 5.45994 19.6461 5.447C19.8793 5.42933 20.1067 5.3657 20.3152 5.25978C20.5237 5.15387 20.7092 5.00774 20.8609 4.82984C21.0127 4.65194 21.1278 4.44577 21.1996 4.2232C21.2713 4.00063 21.2984 3.76606 21.2791 3.533L21.2601 2.316ZM22.8821 23.781C23.017 23.7795 23.1502 23.7506 23.2736 23.6958C23.3969 23.6411 23.5078 23.5618 23.5994 23.4628C23.6911 23.3638 23.7615 23.2471 23.8065 23.1199C23.8515 22.9927 23.8701 22.8576 23.8611 22.723V7.761H1.65811V22.838C1.67132 23.1006 1.78811 23.3472 1.98288 23.5238C2.17765 23.7004 2.43451 23.7925 2.69711 23.78L22.8821 23.781Z" fill="var(--fill-0, white)"/>
<path id="Trazado 184" d="M6.88111 3.697C6.88876 3.82261 6.87024 3.94843 6.82673 4.06651C6.78322 4.18459 6.71567 4.29235 6.62835 4.38296C6.54103 4.47358 6.43585 4.54507 6.31946 4.59293C6.20307 4.64078 6.07802 4.66395 5.95222 4.66096C5.82641 4.65797 5.7026 4.6289 5.58862 4.57557C5.47463 4.52225 5.37296 4.44584 5.29004 4.35119C5.20712 4.25653 5.14476 4.14569 5.1069 4.02568C5.06905 3.90567 5.05652 3.7791 5.07012 3.654V0.987C5.05084 0.749096 5.1256 0.513116 5.27835 0.329708C5.43109 0.146301 5.64965 0.0300832 5.88712 0.006C6.00983 -0.00668484 6.13383 0.00599304 6.25144 0.0432464C6.36904 0.0804997 6.47773 0.141533 6.57076 0.222556C6.66378 0.303579 6.73916 0.402862 6.79221 0.51424C6.84525 0.625617 6.87483 0.74671 6.87911 0.87L6.88111 3.697Z" fill="var(--fill-0, white)"/>
<path id="Trazado 185" d="M20.4501 3.716C20.4499 3.8373 20.4252 3.95731 20.3777 4.06889C20.3301 4.18048 20.2606 4.28137 20.1733 4.36557C20.086 4.44976 19.9826 4.51555 19.8694 4.55901C19.7562 4.60247 19.6353 4.62273 19.5141 4.61857C19.3929 4.61441 19.2737 4.58593 19.1637 4.53481C19.0537 4.48369 18.9551 4.41098 18.8738 4.321C18.7924 4.23102 18.73 4.12561 18.6902 4.01103C18.6504 3.89644 18.634 3.77503 18.6421 3.654V0.986C18.6319 0.861165 18.6476 0.735573 18.6881 0.617053C18.7286 0.498533 18.7931 0.389626 18.8775 0.297119C18.962 0.204613 19.0645 0.13049 19.1789 0.0793716C19.2932 0.0282531 19.4169 0.00123453 19.5421 0C19.6684 0.000442067 19.7932 0.0266735 19.909 0.0770853C20.0247 0.127497 20.129 0.201027 20.2153 0.293164C20.3016 0.385301 20.3682 0.494104 20.411 0.612898C20.4538 0.731693 20.4719 0.857975 20.4641 0.984L20.4501 3.716Z" fill="var(--fill-0, white)"/>
</g>
</svg>
