<svg preserveAspectRatio="none" width="100%" height="100%" overflow="visible" style="display: block;" viewBox="0 0 148.087 148.086" fill="none" xmlns="http://www.w3.org/2000/svg">
<g id="Grupo 836">
<path id="Trazado 2072" d="M148.086 74.013C148.092 88.6586 143.754 102.977 135.622 115.157C127.49 127.338 115.928 136.833 102.399 142.441C88.8695 148.05 73.9809 149.521 59.616 146.667C45.2511 143.813 32.0551 136.764 21.697 126.41C11.3389 116.056 4.28412 102.862 1.42483 88.4985C-1.43445 74.1347 0.0302367 59.2455 5.63365 45.7142C11.2371 32.1829 20.7275 20.6173 32.9046 12.4801C45.0817 4.34294 59.3984 -0.000194867 74.044 1.72954e-06C83.7656 -0.00209963 93.3923 1.91065 102.375 5.62904C111.357 9.34743 119.519 14.7986 126.394 21.6714C133.27 28.5442 138.724 36.7039 142.447 45.6847C146.169 54.6655 148.084 64.2915 148.086 74.013ZM140.839 74.013C140.844 60.8013 136.931 47.8848 129.595 36.8972C122.259 25.9095 111.829 17.3443 99.624 12.2849C87.4195 7.22539 73.9886 5.89894 61.0301 8.47326C48.0716 11.0476 36.1677 17.407 26.8237 26.7473C17.4798 36.0876 11.1157 47.9891 8.53637 60.9466C5.957 73.904 7.27823 87.3354 12.3329 99.5419C17.3877 111.748 25.9488 122.182 36.9336 129.522C47.9184 136.863 60.8333 140.781 74.045 140.781C82.8148 140.783 91.4991 139.057 99.602 135.703C107.705 132.348 115.068 127.43 121.27 121.23C127.473 115.031 132.393 107.67 135.751 99.568C139.108 91.4664 140.837 82.7828 140.839 74.013Z" fill="var(--fill-0, #FF832A)"/>
<path id="Trazado 2073" d="M33.264 81.077C27.895 75.714 28.79 67.207 33.675 62.363C36.1456 59.872 39.4947 58.4493 43.0027 58.4005C46.5108 58.3517 49.8981 59.6807 52.437 62.102L65.264 74.789L94.964 44.718C97.4371 42.1031 100.846 40.5751 104.443 40.4688C108.041 40.3625 111.534 41.6866 114.157 44.151C119.332 48.979 120.168 57.765 114.795 63.205L75.02 103.469C69.949 108.603 61.407 109.188 56.241 104.028L33.264 81.077ZM38.8 76.489L60.587 98.279C63.545 101.237 67.53 100.789 70.387 97.896L109.229 58.553C109.825 57.9862 110.304 57.3069 110.636 56.5545C110.969 55.802 111.149 54.9912 111.167 54.1687C111.185 53.3462 111.04 52.5282 110.741 51.762C110.441 50.9957 109.993 50.2963 109.422 49.704C108.865 49.0965 108.191 48.6069 107.442 48.2642C106.692 47.9214 105.881 47.7325 105.057 47.7085C104.233 47.6846 103.412 47.8261 102.644 48.1247C101.875 48.4233 101.175 48.8729 100.583 49.447L67.695 82.542C67.0423 83.1905 66.1596 83.5544 65.2395 83.5544C64.3195 83.5544 63.4367 83.1905 62.784 82.542L47.595 67.426C46.3932 66.2597 44.7773 65.6186 43.1028 65.6437C41.4283 65.6689 39.8323 66.3582 38.666 67.56C37.4997 68.7618 36.8587 70.3777 36.8838 72.0523C36.9089 73.7268 37.5982 75.3227 38.8 76.489Z" fill="var(--fill-0, #FF832A)"/>
</g>
</svg>
