<svg preserveAspectRatio="none" width="100%" height="100%" overflow="visible" style="display: block;" viewBox="0 0 122.537 122.5" fill="none" xmlns="http://www.w3.org/2000/svg">
<g id="Grupo 825">
<path id="Trazado 2053" d="M68.484 121.43H54.057C53.7929 121.428 53.5321 121.37 53.2918 121.261C53.0515 121.151 52.8371 120.992 52.6626 120.794C52.488 120.596 52.3573 120.363 52.279 120.11C52.2006 119.858 52.1765 119.592 52.208 119.33L52.2 104.081C43.9071 102.326 36.3017 98.2016 30.3063 92.2091C24.311 86.2166 20.1833 78.6131 18.424 70.321H2.918C2.42999 70.3097 1.9653 70.1099 1.62135 69.7635C1.27739 69.4172 1.08088 68.9511 1.073 68.463V54.039C1.07573 53.7751 1.13391 53.5146 1.24379 53.2746C1.35367 53.0346 1.51278 52.8204 1.7108 52.6458C1.90882 52.4713 2.14132 52.3404 2.39323 52.2615C2.64513 52.1826 2.9108 52.1576 3.173 52.188L18.422 52.181C20.1803 43.8876 24.308 36.2829 30.304 30.2897C36.3001 24.2964 43.9068 20.1724 52.201 18.418L52.206 2.918C52.2112 2.42985 52.4075 1.96318 52.7528 1.61809C53.0981 1.27299 53.5648 1.07694 54.053 1.072H68.485C68.9724 1.07668 69.4385 1.27215 69.7834 1.6165C70.1283 1.96085 70.3245 2.42665 70.33 2.914V18.414C78.6253 20.1688 86.2329 24.2935 92.2297 30.2876C98.2265 36.2817 102.355 43.8875 104.113 52.182L119.621 52.187C120.108 52.196 120.573 52.3937 120.917 52.7384C121.261 53.0831 121.458 53.548 121.466 54.035V68.468C121.443 68.9118 121.272 69.3351 120.98 69.67C120.688 70.0049 120.292 70.232 119.855 70.315L104.108 70.321C102.349 78.6138 98.2215 86.218 92.226 92.2111C86.2304 98.2041 78.6245 102.329 70.331 104.084V119.584C70.3238 120.071 70.1269 120.536 69.7822 120.881C69.4375 121.225 68.9722 121.421 68.485 121.428M66.685 117.766L66.673 102.726C66.6466 102.279 66.783 101.837 67.0571 101.482C67.3312 101.128 67.7244 100.884 68.164 100.797C76.3017 99.3656 83.8015 95.4639 89.6448 89.6221C95.4881 83.7802 99.3916 76.2813 100.825 68.144C100.911 67.7022 101.155 67.307 101.512 67.0326C101.868 66.7582 102.313 66.6236 102.762 66.654H117.812V55.845H102.54C102.133 55.8106 101.747 55.6476 101.438 55.3796C101.13 55.1116 100.914 54.7524 100.823 54.354C99.3928 46.2163 95.4911 38.7164 89.6485 32.8742C83.8059 27.0319 76.3058 23.1307 68.168 21.701C67.7258 21.6164 67.3298 21.3731 67.0545 21.0169C66.7792 20.6607 66.6435 20.2162 66.673 19.767V4.718H55.858V19.747C55.8844 20.1964 55.7492 20.6405 55.4769 20.999C55.2046 21.3575 54.813 21.6069 54.373 21.702C46.2352 23.1325 38.735 27.0334 32.8913 32.8747C27.0476 38.7161 23.1437 46.2147 21.71 54.352C21.6242 54.7942 21.3807 55.1901 21.0247 55.466C20.6687 55.742 20.2246 55.8792 19.775 55.852H4.724V66.656H20.263C20.613 66.7562 20.9308 66.9463 21.1846 67.2074C21.4384 67.4684 21.6196 67.7913 21.71 68.144C23.1437 76.2816 27.0475 83.7806 32.8911 89.6224C38.7348 95.4643 46.235 99.3658 54.373 100.797C54.8147 100.882 55.21 101.126 55.4846 101.482C55.7592 101.839 55.8941 102.283 55.864 102.732V117.79L66.685 117.766Z" fill="var(--fill-0, #FF832A)"/>
<path id="Trazado 2054" d="M68.506 122.5H54.058C53.6511 122.496 53.2492 122.409 52.8772 122.244C52.5052 122.079 52.171 121.84 51.895 121.541C51.6249 121.236 51.4185 120.881 51.288 120.495C51.1575 120.11 51.1055 119.702 51.135 119.296L51.129 104.941C42.9611 103.039 35.4885 98.8881 29.5569 92.9594C23.6253 87.0306 19.4713 79.56 17.565 71.393L2.859 71.387C2.1061 71.3589 1.39198 71.0459 0.861181 70.5112C0.330383 69.9765 0.0225541 69.2601 0 68.507L0 54.039C0.00453195 53.6331 0.0917291 53.2325 0.256268 52.8614C0.420807 52.4904 0.659236 52.1568 0.957 51.881C1.262 51.6105 1.61794 51.4035 2.00396 51.2723C2.38998 51.1411 2.79831 51.0883 3.205 51.117L17.562 51.11C19.4672 42.9414 23.6211 35.4693 29.5534 29.5394C35.4857 23.6096 42.9596 19.4588 51.129 17.557V2.913C51.1354 2.14655 51.4411 1.41295 51.9808 0.868725C52.5206 0.324504 53.2516 0.0127565 54.018 0L68.485 0C69.249 0.00502482 69.9809 0.307752 70.5252 0.843856C71.0695 1.37996 71.3834 2.10718 71.4 2.871V17.554C79.5695 19.4581 87.0433 23.6098 92.9763 29.5398C98.9093 35.4698 103.065 42.9415 104.973 51.11H119.621C120.384 51.1215 121.113 51.4272 121.657 51.9632C122.2 52.4992 122.515 53.2241 122.537 53.987V68.494V68.525C122.502 69.202 122.243 69.8482 121.8 70.3612C121.357 70.8741 120.755 71.2246 120.09 71.357L119.857 71.383L104.969 71.388C103.06 79.5544 98.9055 87.0242 92.9741 92.9531C87.0427 98.882 79.5712 103.034 71.404 104.939V119.581C71.3942 120.344 71.0892 121.074 70.5531 121.618C70.0169 122.161 69.2912 122.476 68.528 122.496L68.506 122.5ZM2.952 69.244L19.293 69.249L19.473 70.098C21.1962 78.1843 25.2254 85.5981 31.0731 91.4429C36.9209 97.2876 44.3368 101.313 52.424 103.032L53.273 103.212L53.281 119.366V119.403C53.2666 119.528 53.2777 119.654 53.3134 119.774C53.3492 119.895 53.4089 120.006 53.489 120.103C53.5673 120.184 53.6615 120.249 53.7657 120.292C53.87 120.336 53.9821 120.358 54.095 120.356H68.464C68.5706 120.356 68.6761 120.335 68.7744 120.293C68.8726 120.252 68.9616 120.192 69.0361 120.115C69.1107 120.039 69.1692 119.949 69.2084 119.85C69.2475 119.751 69.2664 119.645 69.264 119.538V103.215L70.114 103.034C78.1996 101.312 85.6137 97.2857 91.4607 91.4414C97.3076 85.5971 101.337 78.1849 103.063 70.1L103.243 69.251L119.722 69.245C119.905 69.1979 120.069 69.0942 120.19 68.9485C120.311 68.8029 120.383 68.6229 120.396 68.434V54.034C120.39 53.8222 120.3 53.6214 120.146 53.4757C119.992 53.33 119.787 53.2514 119.575 53.257H103.247L103.067 52.408C101.343 44.3201 97.3136 36.9045 91.4653 31.0578C85.617 25.2112 78.2004 21.1836 70.112 19.462L69.262 19.281V2.913C69.2597 2.80938 69.2369 2.70725 69.195 2.61246C69.1531 2.51766 69.0928 2.43209 69.0178 2.36063C68.9427 2.28918 68.8542 2.23326 68.7575 2.19608C68.6607 2.15891 68.5576 2.14121 68.454 2.144H54.054C53.9496 2.14594 53.8466 2.16854 53.751 2.21048C53.6554 2.25242 53.569 2.31287 53.4969 2.38836C53.4247 2.46385 53.3682 2.55287 53.3307 2.6503C53.2931 2.74772 53.2752 2.85162 53.278 2.956V19.286L52.429 19.466C44.3401 21.1829 36.9222 25.2074 31.0729 31.0524C25.2237 36.8974 21.1938 44.3124 19.471 52.4L19.291 53.249L3.14 53.261H3.105C2.97885 53.2465 2.85107 53.2577 2.72938 53.2939C2.60769 53.3302 2.49461 53.3908 2.397 53.472C2.31595 53.5504 2.25171 53.6444 2.20822 53.7485C2.16472 53.8525 2.14287 53.9643 2.144 54.077V68.463C2.15126 68.6725 2.23954 68.871 2.39027 69.0167C2.54099 69.1624 2.74238 69.2439 2.952 69.244ZM54.786 118.866V102.732C54.8109 102.537 54.7629 102.339 54.6511 102.177C54.5393 102.014 54.3715 101.899 54.18 101.853C45.8327 100.367 38.1423 96.3561 32.1471 90.3609C26.1519 84.3657 22.1407 76.6753 20.655 68.328C20.6072 68.1915 20.5302 68.0671 20.4293 67.9634C20.3285 67.8598 20.2062 67.7794 20.071 67.728H3.652V54.772H19.774C19.9701 54.797 20.1686 54.7486 20.3311 54.6359C20.4936 54.5233 20.6086 54.3545 20.654 54.162C22.1378 45.8131 26.1495 38.1211 32.1467 32.1262C38.144 26.1313 45.8375 22.1225 54.187 20.642C54.661 20.558 54.787 20.036 54.787 19.742V3.642H67.753V19.763C67.7278 19.9576 67.775 20.1547 67.8856 20.3167C67.9963 20.4788 68.1626 20.5946 68.353 20.642C76.7024 22.1238 84.3954 26.1339 90.3918 32.1299C96.3882 38.1259 100.399 45.8187 101.881 54.168C101.932 54.3295 102.03 54.4725 102.161 54.5792C102.293 54.6858 102.453 54.7515 102.622 54.768H118.886V67.728H102.764C102.569 67.7023 102.372 67.7492 102.209 67.8599C102.047 67.9706 101.93 68.1372 101.883 68.328C100.395 76.675 96.3819 84.3646 90.3859 90.3592C84.3899 96.3538 76.6993 100.365 68.352 101.851C68.1681 101.897 68.0066 102.006 67.8965 102.161C67.7865 102.315 67.7352 102.503 67.752 102.692L67.761 118.835L54.786 118.866ZM20.428 65.582L20.585 65.631C21.1221 65.7908 21.6071 66.0905 21.9904 66.4994C22.3736 66.9083 22.6413 67.4117 22.766 67.958C24.1753 75.8724 27.9792 83.1637 33.6642 88.8474C39.3492 94.5311 46.6413 98.3335 54.556 99.741C55.2529 99.87 55.8788 100.249 56.3166 100.806C56.7543 101.364 56.9738 102.061 56.934 102.769V116.716L65.614 116.698L65.6 102.727C65.5691 102.026 65.7927 101.338 66.2296 100.789C66.6665 100.24 67.2871 99.868 67.977 99.741C75.8917 98.3326 83.1839 94.53 88.8693 88.8465C94.5548 83.1631 98.3598 75.8722 99.771 67.958C99.8979 67.2602 100.276 66.6331 100.834 66.1953C101.392 65.7574 102.091 65.5393 102.799 65.582H116.742V56.917H102.472L102.402 56.908C101.767 56.8464 101.169 56.5832 100.695 56.1569C100.221 55.7305 99.8962 55.1635 99.768 54.539C98.3617 46.6243 94.5593 39.3321 88.8748 33.6482C83.1903 27.9643 75.8979 24.1626 67.983 22.757C67.2853 22.6292 66.6582 22.2512 66.2194 21.6939C65.7806 21.1365 65.5604 20.4382 65.6 19.73V5.79H56.93V19.746C56.9576 20.4491 56.7332 21.1389 56.2972 21.6911C55.8612 22.2434 55.2423 22.6217 54.552 22.758C46.6372 24.1628 39.3446 27.9638 33.6599 33.6473C27.9752 39.3307 24.1725 46.6225 22.766 54.537C22.6327 55.2302 22.2545 55.8524 21.7003 56.2897C21.1462 56.7271 20.4532 56.9504 19.748 56.919H5.797V65.586L20.428 65.582Z" fill="var(--fill-0, #FF832A)"/>
<path id="Trazado 2055" d="M77.485 114.756C77.2562 114.848 77.0111 114.892 76.7647 114.886C76.5183 114.881 76.2755 114.825 76.0512 114.723C75.8268 114.621 75.6255 114.474 75.4594 114.292C75.2932 114.11 75.1657 113.896 75.0845 113.663C75.0034 113.431 74.9702 113.184 74.9871 112.938C75.004 112.692 75.0705 112.452 75.1827 112.233C75.2949 112.013 75.4504 111.819 75.6399 111.661C75.8293 111.503 76.0488 111.386 76.285 111.315C84.5642 108.812 92.0968 104.303 98.2133 98.1877C104.33 92.0724 108.841 84.5407 111.345 76.262C111.414 76.0332 111.527 75.8203 111.678 75.6352C111.829 75.4502 112.015 75.2968 112.226 75.1837C112.436 75.0706 112.667 75 112.904 74.9761C113.142 74.9521 113.382 74.9752 113.611 75.044C113.84 75.1128 114.053 75.226 114.238 75.3771C114.423 75.5282 114.576 75.7143 114.689 75.9247C114.802 76.1352 114.873 76.3658 114.897 76.6035C114.921 76.8412 114.898 77.0812 114.829 77.31C112.171 86.1453 107.37 94.1869 100.855 100.72C94.3397 107.253 86.3111 112.075 77.483 114.757" fill="var(--fill-0, #FF832A)"/>
<path id="Trazado 2056" d="M76.767 115.942C76.2821 115.945 75.8044 115.824 75.379 115.591C74.8849 115.31 74.4841 114.891 74.2264 114.385C73.9687 113.878 73.8653 113.307 73.9293 112.743C73.9932 112.178 74.2215 111.645 74.5859 111.209C74.9503 110.773 75.4347 110.454 75.979 110.291C84.0916 107.844 91.4729 103.428 97.4651 97.4369C103.457 91.4457 107.875 84.0652 110.323 75.953C110.544 75.2187 111.048 74.6024 111.724 74.2397C112.399 73.8769 113.191 73.7973 113.926 74.0185C114.66 74.2397 115.276 74.7435 115.639 75.4191C116.002 76.0947 116.081 76.8867 115.86 77.621C113.156 86.6281 108.265 94.8263 101.624 101.485C94.9827 108.143 86.7972 113.055 77.797 115.782C77.4635 115.886 77.1164 115.941 76.767 115.943M113.108 76.023C112.942 76.019 112.779 76.0709 112.645 76.1704C112.512 76.2699 112.416 76.4113 112.372 76.572C109.822 85.0222 105.22 92.7102 98.9784 98.9511C92.7365 105.192 85.0476 109.792 76.597 112.341C76.4107 112.392 76.2512 112.512 76.1517 112.678C76.0522 112.843 76.0204 113.041 76.063 113.229C76.0861 113.329 76.129 113.424 76.1893 113.507C76.2496 113.59 76.326 113.661 76.414 113.714C76.655 113.818 76.9269 113.824 77.172 113.73C85.8338 111.104 93.7114 106.377 100.103 99.9679C106.494 93.5592 111.201 85.6688 113.803 77C113.836 76.9017 113.849 76.7974 113.839 76.694C113.829 76.5906 113.798 76.4904 113.747 76.4C113.698 76.3126 113.632 76.2358 113.553 76.1742C113.473 76.1125 113.383 76.0673 113.286 76.041C113.227 76.0266 113.167 76.0196 113.107 76.02" fill="var(--fill-0, #FF832A)"/>
<path id="Trazado 2057" d="M11.237 46.097C11.1836 46.3387 11.0821 46.5671 10.9386 46.7688C10.795 46.9704 10.6124 47.1411 10.4015 47.2707C10.1907 47.4003 9.95588 47.4862 9.71115 47.5232C9.46642 47.5601 9.21675 47.5475 8.977 47.486C8.73884 47.4244 8.51572 47.3149 8.32123 47.1643C8.12675 47.0136 7.96498 46.825 7.84578 46.6098C7.72658 46.3946 7.65245 46.1573 7.6279 45.9126C7.60335 45.6678 7.62891 45.4206 7.703 45.186C10.3715 36.3264 15.1931 28.2657 21.737 21.7242C28.2809 15.1828 36.3434 10.3642 45.204 7.699C45.4391 7.6259 45.6865 7.6013 45.9314 7.62669C46.1762 7.65209 46.4134 7.72694 46.6285 7.84672C46.8435 7.9665 47.032 8.12871 47.1825 8.32352C47.333 8.51832 47.4424 8.74166 47.504 8.98C47.6123 9.4385 47.543 9.92101 47.31 10.3305C47.0769 10.7399 46.6975 11.0459 46.248 11.187C37.9909 13.6778 30.4755 18.1668 24.3678 24.2562C18.2601 30.3455 13.7486 37.8474 11.233 46.097" fill="var(--fill-0, #FF832A)"/>
<path id="Trazado 2058" d="M9.449 48.613C9.20929 48.6124 8.97042 48.5846 8.737 48.53C8.3622 48.44 8.00975 48.2743 7.70126 48.0432C7.39277 47.8121 7.13474 47.5204 6.943 47.186C6.74181 46.8406 6.61439 46.4573 6.56878 46.0603C6.52317 45.6632 6.56036 45.261 6.678 44.879C9.38027 35.8408 14.2882 27.6167 20.9597 20.9472C27.6313 14.2777 35.857 9.37243 44.896 6.673C45.2705 6.55718 45.6647 6.51877 46.0545 6.5601C46.4443 6.60142 46.8217 6.72163 47.1636 6.91339C47.5055 7.10516 47.8048 7.36448 48.0433 7.67557C48.2818 7.98667 48.4546 8.34304 48.551 8.723C48.721 9.44808 48.6108 10.2106 48.2426 10.8579C47.8743 11.5053 47.2751 11.9896 46.565 12.214C38.4769 14.6556 31.1155 19.0538 25.1327 25.0192C19.1499 30.9846 14.7302 38.333 12.265 46.414C12.1031 47.0393 11.7396 47.5937 11.2306 47.9915C10.7217 48.3892 10.0959 48.608 9.45 48.614M45.755 8.689C45.673 8.68965 45.5915 8.70211 45.513 8.726C36.814 11.3245 28.8978 16.0458 22.4773 22.4647C16.0568 28.8836 11.3336 36.7986 8.733 45.497C8.70038 45.5981 8.68939 45.7049 8.70077 45.8105C8.71214 45.9161 8.74561 46.0182 8.799 46.11C8.84375 46.1907 8.90426 46.2616 8.97692 46.3184C9.04958 46.3753 9.13292 46.417 9.222 46.441C9.561 46.52 10.005 46.469 10.214 45.783C12.7818 37.3653 17.3858 29.7108 23.618 23.4971C29.8503 17.2835 37.5187 12.7026 45.944 10.16C46.1303 10.0987 46.2872 9.97048 46.3843 9.80016C46.4815 9.62984 46.512 9.42953 46.47 9.238C46.4446 9.14295 46.4004 9.05393 46.3401 8.97614C46.2799 8.89836 46.2047 8.83338 46.119 8.785C46.0089 8.72041 45.8837 8.68592 45.756 8.685" fill="var(--fill-0, #FF832A)"/>
<path id="Trazado 2059" d="M46.114 111.267C46.3555 111.32 46.5839 111.422 46.7853 111.566C46.9868 111.709 47.1572 111.892 47.2866 112.103C47.4159 112.314 47.5015 112.549 47.5381 112.793C47.5748 113.038 47.5618 113.287 47.5 113.527C47.4386 113.764 47.3295 113.987 47.1795 114.18C47.0295 114.374 46.8416 114.535 46.6274 114.654C46.4131 114.773 46.1769 114.848 45.933 114.872C45.6892 114.897 45.4429 114.872 45.209 114.799C36.3462 112.135 28.2817 107.317 21.7366 100.774C15.1916 94.2315 10.37 86.1688 7.703 77.307C7.62976 77.0768 7.60311 76.8343 7.62458 76.5937C7.64606 76.3532 7.71525 76.1193 7.8281 75.9057C7.94095 75.6921 8.09521 75.5031 8.28187 75.3498C8.46854 75.1965 8.68387 75.0819 8.9153 75.0127C9.14673 74.9435 9.38962 74.9211 9.62981 74.9468C9.86999 74.9725 10.1027 75.0458 10.3142 75.1623C10.5258 75.2789 10.712 75.4365 10.862 75.6258C11.0121 75.8151 11.1229 76.0324 11.188 76.265C13.6844 84.5197 18.177 92.0318 24.2683 98.1365C30.3596 104.241 37.8618 108.75 46.111 111.265" fill="var(--fill-0, #FF832A)"/>
<path id="Trazado 2060" d="M45.755 115.952C45.4653 115.952 45.1773 115.909 44.9 115.825C35.8611 113.124 27.6357 108.217 20.964 101.547C14.2923 94.8773 9.38374 86.6532 6.68 77.615C6.56296 77.2492 6.51998 76.8638 6.55356 76.4812C6.58713 76.0986 6.6966 75.7266 6.87557 75.3868C7.05453 75.047 7.2994 74.7462 7.59588 74.5021C7.89237 74.258 8.23452 74.0754 8.60235 73.965C8.97018 73.8546 9.35633 73.8186 9.73824 73.8591C10.1201 73.8996 10.4902 74.0157 10.8267 74.2008C11.1632 74.3859 11.4594 74.6361 11.6982 74.937C11.9369 75.2378 12.1133 75.5832 12.217 75.953C14.6633 84.0396 19.065 91.3987 25.0326 97.3792C31.0001 103.36 38.3497 107.777 46.431 110.241C47.1777 110.431 47.8191 110.908 48.2156 111.569C48.6121 112.229 48.7316 113.02 48.548 113.768C48.4582 114.142 48.2929 114.494 48.0621 114.803C47.8313 115.111 47.54 115.369 47.206 115.56C46.7668 115.816 46.2675 115.952 45.759 115.952M9.431 76.021C9.36867 76.0208 9.30655 76.0282 9.246 76.043C9.14965 76.0691 9.05945 76.1141 8.98065 76.1754C8.90185 76.2367 8.83602 76.313 8.787 76.4C8.73639 76.4906 8.70527 76.5908 8.69563 76.6941C8.68598 76.7974 8.69803 76.9016 8.731 77C11.3334 85.6987 16.0581 93.6137 22.4797 100.033C28.9013 106.452 36.8182 111.173 45.518 113.772C45.6183 113.804 45.7243 113.815 45.829 113.804C45.9338 113.792 46.035 113.759 46.126 113.706C46.2062 113.661 46.2767 113.601 46.3334 113.529C46.39 113.457 46.4317 113.374 46.456 113.286C46.534 112.948 46.483 112.502 45.801 112.293C37.383 109.726 29.7276 105.123 23.512 98.8929C17.2963 92.6624 12.7121 84.996 10.165 76.572C10.1236 76.4106 10.0288 76.268 9.8961 76.1673C9.76341 76.0665 9.60057 76.0136 9.434 76.017" fill="var(--fill-0, #FF832A)"/>
<path id="Trazado 2061" d="M114.791 45.039C114.889 45.2804 114.935 45.5402 114.924 45.8008C114.914 46.0613 114.847 46.3165 114.729 46.5491C114.611 46.7816 114.444 46.9861 114.24 47.1486C114.036 47.3111 113.8 47.4279 113.547 47.491C113.09 47.6002 112.608 47.5316 112.2 47.2992C111.791 47.0667 111.487 46.6878 111.347 46.239C108.845 37.9596 104.336 30.4271 98.2192 24.3116C92.1029 18.1962 84.5697 13.6876 76.29 11.187C76.0585 11.1208 75.8425 11.0093 75.6545 10.859C75.4664 10.7087 75.3101 10.5225 75.1945 10.3113C75.079 10.1001 75.0065 9.86811 74.9812 9.62869C74.956 9.38927 74.9786 9.14723 75.0476 8.9166C75.1166 8.68596 75.2307 8.47133 75.3833 8.28513C75.5359 8.09893 75.724 7.94487 75.9366 7.83189C76.1492 7.71891 76.3821 7.64925 76.6218 7.62696C76.8615 7.60466 77.1032 7.63017 77.333 7.702C86.1695 10.3574 94.2128 15.1554 100.748 21.6693C107.282 28.1832 112.106 36.2111 114.79 45.039" fill="var(--fill-0, #FF832A)"/>
<path id="Trazado 2062" d="M113.132 48.615C112.503 48.62 111.89 48.4214 111.383 48.0488C110.877 47.6762 110.504 47.1497 110.322 46.548C107.878 38.4344 103.462 31.0522 97.4701 25.0608C91.4778 19.0693 84.095 14.655 75.981 12.212C75.614 12.1058 75.2718 11.928 74.974 11.6887C74.6761 11.4494 74.4287 11.1535 74.2459 10.8181C74.0632 10.4826 73.9487 10.1143 73.9091 9.7343C73.8696 9.35434 73.9057 8.9703 74.0155 8.60439C74.1252 8.23848 74.3064 7.89794 74.5485 7.60247C74.7907 7.307 75.089 7.06244 75.4262 6.88294C75.7634 6.70344 76.1329 6.59256 76.5132 6.5567C76.8935 6.52083 77.2772 6.5607 77.642 6.674C86.6504 9.37436 94.8506 14.262 101.511 20.9011C108.172 27.5402 113.086 35.7244 115.816 44.724C115.953 45.121 116.005 45.542 115.971 45.9605C115.937 46.3789 115.816 46.7857 115.616 47.155C115.425 47.4938 115.167 47.7901 114.857 48.0258C114.548 48.2615 114.193 48.4317 113.816 48.526C113.591 48.5849 113.36 48.6145 113.127 48.614M76.777 8.69C76.6536 8.68965 76.5322 8.72172 76.425 8.783C76.295 8.85582 76.1896 8.96584 76.1225 9.09894C76.0554 9.23204 76.0296 9.38216 76.0484 9.53002C76.0672 9.67789 76.1298 9.81676 76.2281 9.92883C76.3263 10.0409 76.4559 10.1211 76.6 10.159C85.0526 12.7038 92.7434 17.3021 98.9858 23.5435C105.228 29.7848 109.828 37.4749 112.374 45.927C112.434 46.1096 112.558 46.264 112.724 46.361C112.89 46.4579 113.086 46.4906 113.274 46.453C113.372 46.4311 113.464 46.3896 113.545 46.3309C113.626 46.2723 113.695 46.1978 113.746 46.112C113.852 45.8704 113.859 45.5968 113.766 45.35C111.14 36.6879 106.411 28.8105 100 22.4204C93.5899 16.0303 85.6974 11.3263 77.027 8.728C76.9468 8.70268 76.8632 8.68953 76.779 8.689" fill="var(--fill-0, #FF832A)"/>
<path id="Trazado 2063" d="M92.006 61.248C92.0078 67.3278 90.2065 73.2716 86.83 78.3277C83.4535 83.3837 78.6535 87.3249 73.0369 89.6527C67.4204 91.9806 61.2397 92.5905 55.2765 91.4054C49.3133 90.2203 43.8354 87.2934 39.5358 82.9949C35.2361 78.6963 32.3078 73.2193 31.1212 67.2564C29.9345 61.2935 30.5428 55.1126 32.8692 49.4955C35.1956 43.8783 39.1355 39.0772 44.1907 35.6994C49.2458 32.3216 55.1892 30.5188 61.269 30.519C65.3049 30.5185 69.3014 31.3129 73.0303 32.8569C76.7592 34.4009 80.1475 36.6642 83.0017 39.5177C85.8559 42.3711 88.1201 45.7588 89.6651 49.4873C91.21 53.2158 92.0055 57.2121 92.006 61.248ZM88.351 61.248C88.3524 55.891 86.7651 50.6539 83.7899 46.199C80.8147 41.7442 76.5853 38.2717 71.6364 36.2207C66.6876 34.1697 61.2417 33.6323 55.9875 34.6766C50.7332 35.7208 45.9067 38.2998 42.1182 42.0872C38.3297 45.8747 35.7495 50.7006 34.7039 55.9546C33.6583 61.2086 34.1943 66.6546 36.244 71.604C38.2937 76.5533 41.7651 80.7837 46.2192 83.76C50.6733 86.7364 55.91 88.325 61.267 88.325C64.8233 88.3255 68.3448 87.6256 71.6306 86.2651C74.9164 84.9046 77.902 82.9103 80.417 80.3959C82.932 77.8816 84.9271 74.8965 86.2884 71.6111C87.6497 68.3257 88.3506 64.8043 88.351 61.248Z" fill="var(--fill-0, #FF832A)"/>
<path id="Trazado 2064" d="M61.268 93.05C54.979 93.048 48.8318 91.1813 43.6036 87.6859C38.3754 84.1904 34.3011 79.2233 31.8958 73.4124C29.4904 67.6015 28.8621 61.2079 30.0903 55.04C31.3184 48.8721 34.3478 43.2068 38.7955 38.7605C43.2432 34.3142 48.9095 31.2865 55.0778 30.0603C61.2461 28.8341 67.6395 29.4644 73.4496 31.8716C79.2598 34.2788 84.2256 38.3546 87.7194 43.5839C91.2132 48.8132 93.078 54.961 93.078 61.25C93.0671 69.6823 89.7119 77.7659 83.7485 83.7275C77.785 89.6891 69.7003 93.0418 61.268 93.05ZM61.268 31.592C55.4028 31.5938 49.6698 33.3346 44.7939 36.5945C39.918 39.8543 36.1182 44.4867 33.8749 49.906C31.6316 55.3253 31.0456 61.288 32.191 67.0403C33.3363 72.7926 36.1616 78.0761 40.3095 82.2228C44.4575 86.3695 49.7419 89.1932 55.4945 90.3368C61.2472 91.4804 67.2097 90.8926 72.6283 88.6476C78.0469 86.4027 82.6782 82.6015 85.9365 77.7246C89.1949 72.8477 90.934 67.1142 90.934 61.249C90.9245 53.3847 87.7956 45.8454 82.234 40.2853C76.6724 34.7252 69.1323 31.5994 61.268 31.592ZM61.268 89.396C55.701 89.3946 50.2593 87.7425 45.6312 84.6486C41.003 81.5547 37.3962 77.158 35.2667 72.0143C33.1372 66.8706 32.5808 61.211 33.6677 55.7511C34.7547 50.2912 37.4361 45.2762 41.3731 41.3402C45.3101 37.4042 50.3258 34.7239 55.786 33.6384C61.2462 32.5528 66.9056 33.1107 72.0488 35.2414C77.1919 37.3721 81.5878 40.9801 84.6805 45.609C87.7733 50.2379 89.424 55.68 89.424 61.247C89.4145 68.7109 86.4448 75.8662 81.1663 81.1433C75.8879 86.4204 68.7319 89.3883 61.268 89.396ZM61.268 35.243C56.1262 35.2454 51.1005 36.7723 46.8264 39.6306C42.5523 42.489 39.2217 46.5505 37.2557 51.3015C35.2897 56.0526 34.7765 61.28 35.781 66.3227C36.7856 71.3654 39.2628 75.9971 42.8995 79.632C46.5361 83.267 51.1689 85.742 56.2121 86.7443C61.2552 87.7465 66.4824 87.2309 71.2325 85.2627C75.9827 83.2945 80.0427 79.962 82.899 75.6866C85.7554 71.4112 87.28 66.3848 87.28 61.243C87.2699 54.3484 84.5258 47.7392 79.6494 42.8651C74.7731 37.991 68.1626 35.2499 61.268 35.243Z" fill="var(--fill-0, #FF832A)"/>
<path id="Trazado 2065" d="M53.232 72.339L43.769 61.631C43.5202 61.232 43.4327 60.7532 43.5243 60.292C43.6159 59.8308 43.8797 59.4217 44.262 59.148C44.6432 58.9062 45.0978 58.807 45.5451 58.8682C45.9924 58.9293 46.4036 59.1467 46.706 59.482L54.806 68.619L75.806 50.129C76.1325 49.7741 76.5813 49.5561 77.0621 49.519C77.5429 49.4819 78.0199 49.6284 78.397 49.929C78.5864 50.0914 78.7407 50.2905 78.8507 50.5144C78.9606 50.7383 79.0239 50.9822 79.0366 51.2313C79.0493 51.4804 79.0112 51.7295 78.9247 51.9634C78.8381 52.1973 78.7048 52.4112 78.533 52.592L55.933 72.483C55.7505 72.6607 55.5332 72.7988 55.2948 72.8885C55.0564 72.9783 54.8021 73.0178 54.5477 73.0045C54.2933 72.9913 54.0444 72.9256 53.8166 72.8116C53.5888 72.6976 53.3871 72.5377 53.224 72.342" fill="var(--fill-0, #FF832A)"/>
<path id="Trazado 2066" d="M54.634 74.071C54.2144 74.0686 53.8002 73.9761 53.4195 73.7998C53.0387 73.6235 52.7002 73.3674 52.427 73.049L42.964 62.341C42.7295 62.0635 42.5596 61.7373 42.4668 61.386C42.3739 61.0347 42.3603 60.6672 42.427 60.31C42.4921 59.7499 42.7193 59.221 43.0809 58.7883C43.4424 58.3557 43.9225 58.038 44.4621 57.8744C45.0017 57.7108 45.5773 57.7085 46.1183 57.8676C46.6592 58.0267 47.1419 58.3403 47.507 58.77L54.899 67.108L75.099 49.324C75.6185 48.7983 76.3151 48.4848 77.0531 48.4447C77.7911 48.4045 78.5176 48.6407 79.091 49.107C79.4105 49.3916 79.6669 49.7398 79.8438 50.1294C80.0206 50.5189 80.1141 50.9412 80.118 51.369C80.1284 51.7499 80.0553 52.1285 79.9038 52.4782C79.7523 52.8279 79.5261 53.1401 79.241 53.393L56.648 73.288C56.0956 73.7878 55.3789 74.0674 54.634 74.074M54.034 71.631C54.1052 71.7199 54.1947 71.7925 54.2964 71.8438C54.3981 71.8951 54.5097 71.9239 54.6235 71.9283C54.7373 71.9326 54.8508 71.9125 54.9561 71.8691C55.0614 71.8257 55.1562 71.7602 55.234 71.677L77.834 51.787C77.8863 51.7364 77.9268 51.6748 77.9524 51.6067C77.978 51.5385 77.9881 51.4655 77.982 51.393C77.9817 51.1504 77.8853 50.9178 77.714 50.746C77.282 50.38 76.783 50.707 76.524 50.935L54.717 70.129L45.903 60.188C45.7666 60.042 45.583 59.9489 45.3846 59.9253C45.1862 59.9017 44.9858 59.949 44.819 60.059C44.6638 60.2234 44.5668 60.4342 44.543 60.659C44.524 60.7458 44.5338 60.8363 44.571 60.917L54.034 71.631Z" fill="var(--fill-0, #FF832A)"/>
</g>
</svg>
