<svg preserveAspectRatio="none" width="100%" height="100%" overflow="visible" style="display: block;" viewBox="0 0 123.522 123.522" fill="none" xmlns="http://www.w3.org/2000/svg">
<g id="Grupo 823">
<path id="Trazado 2051" d="M123.522 61.736C123.527 73.9522 119.909 85.8955 113.126 96.0554C106.342 106.215 96.6982 114.135 85.4133 118.814C74.1284 123.492 61.7095 124.719 49.7274 122.338C37.7453 119.958 26.7382 114.078 18.0982 105.441C9.45832 96.805 3.57367 85.8003 1.18858 73.8192C-1.19651 61.838 0.0251026 49.4187 4.69891 38.1319C9.37272 26.8451 17.2888 17.1978 27.4459 10.4103C37.6029 3.62285 49.5448 2.36966e-06 61.761 1.36884e-06C69.87 -0.00170599 77.8999 1.5938 85.3922 4.69541C92.8845 7.79702 99.6926 12.344 105.428 18.0767C111.163 23.8095 115.712 30.6157 118.817 38.1067C121.922 45.5978 123.52 53.6271 123.522 61.736ZM117.476 61.736C117.48 50.7157 114.216 39.9417 108.097 30.7767C101.977 21.6116 93.277 14.4672 83.0968 10.2471C72.9166 6.02693 61.7135 4.92059 50.9044 7.06799C40.0954 9.21539 30.166 14.5201 22.372 22.3111C14.578 30.1022 9.26959 40.0296 7.11811 50.8378C4.96663 61.646 6.06875 72.8495 10.2851 83.0314C14.5014 93.2132 21.6425 101.916 30.8052 108.039C39.968 114.162 50.7407 117.43 61.761 117.43C69.0763 117.432 76.3204 115.993 83.0795 113.195C89.8386 110.397 95.9804 106.295 101.154 101.124C106.328 95.9519 110.432 89.8118 113.233 83.0538C116.033 76.2958 117.475 69.0513 117.476 61.736Z" fill="var(--fill-0, #FF832A)"/>
<path id="Trazado 2052" d="M27.746 67.629C23.268 63.156 24.014 56.06 28.089 52.019C30.1502 49.942 32.9436 48.7558 35.8695 48.7151C38.7954 48.6743 41.6207 49.7822 43.739 51.801L54.439 62.384L79.209 37.302C81.2717 35.1207 84.1149 33.846 87.1158 33.7574C90.1166 33.6687 93.0302 34.7733 95.218 36.829C99.535 40.856 100.232 48.185 95.75 52.722L62.576 86.307C58.346 90.589 51.221 91.077 46.912 86.773L27.746 67.629ZM32.363 63.799L50.536 81.978C53.004 84.446 56.327 84.071 58.71 81.658L91.11 48.841C91.6076 48.3684 92.0068 47.8019 92.2844 47.1742C92.562 46.5466 92.7127 45.8702 92.7277 45.184C92.7426 44.4979 92.6216 43.8156 92.3716 43.1764C92.1216 42.5372 91.7475 41.9539 91.271 41.46C90.8062 40.9532 90.2445 40.5447 89.6191 40.2588C88.9937 39.9728 88.3173 39.8151 87.6299 39.7951C86.9425 39.775 86.2581 39.893 85.6171 40.1421C84.9761 40.3911 84.3916 40.7661 83.898 41.245L56.463 68.851C55.9184 69.393 55.1813 69.6973 54.413 69.6973C53.6447 69.6973 52.9076 69.393 52.363 68.851L39.699 56.242C38.6969 55.2692 37.3494 54.7343 35.9529 54.755C34.5564 54.7757 33.2253 55.3504 32.2525 56.3525C31.2797 57.3546 30.7448 58.7021 30.7655 60.0986C30.7863 61.4951 31.3609 62.8262 32.363 63.799Z" fill="var(--fill-0, #FF832A)"/>
</g>
</svg>
