<svg preserveAspectRatio="none" width="100%" height="100%" overflow="visible" style="display: block;" viewBox="0 0 112.477 108.746" fill="none" xmlns="http://www.w3.org/2000/svg">
<path id="Trazado 2050" d="M1.53869 99.5892C0.58365 98.6018 0.0349611 97.2912 0.00161398 95.9179C-0.0317331 94.5445 0.452702 93.2089 1.35869 92.1762L11.9977 81.2122C12.318 80.9619 12.7236 80.8473 13.1275 80.8929C13.5314 80.9385 13.9013 81.1408 14.1577 81.4562C14.4255 81.7801 14.558 82.195 14.5274 82.6142C14.4969 83.0334 14.3057 83.4246 13.9937 83.7062L12.4937 85.2692L9.4937 88.3402L5.99769 91.9192L3.99269 94.0012C3.56741 94.4219 3.31234 94.9848 3.27635 95.5819C3.24037 96.1791 3.42601 96.7685 3.79769 97.2372L11.0977 104.758C11.5208 105.179 12.0919 105.418 12.6887 105.423C13.2855 105.428 13.8606 105.199 14.2907 104.785L28.6927 90.0222L32.8977 85.6992L36.2567 82.2562L42.6137 75.7642C43.4917 74.8642 44.1767 73.2782 43.1207 72.1902L35.7457 64.5902C35.5123 64.3839 35.24 64.2265 34.9447 64.1272C34.6495 64.0279 34.3373 63.9888 34.0267 64.0122C33.7161 64.0356 33.4133 64.121 33.1363 64.2634C32.8592 64.4058 32.6135 64.6023 32.4137 64.8412L31.4137 65.8482L28.7267 68.5972L25.2267 72.1792L21.1687 76.3262C20.8987 76.6315 20.5189 76.8176 20.1122 76.844C19.7056 76.8705 19.3049 76.735 18.9977 76.4672C18.8292 76.3144 18.6938 76.1285 18.6 75.9213C18.5061 75.714 18.4558 75.4897 18.4522 75.2622C18.4485 75.0347 18.4916 74.8089 18.5787 74.5987C18.6658 74.3885 18.7952 74.1984 18.9587 74.0402L30.5587 62.1572C31.2917 61.483 32.1943 61.0208 33.1698 60.82C34.1452 60.6192 35.157 60.6873 36.0967 61.0172L64.4087 31.9782C63.831 31.2433 63.5305 30.3283 63.5599 29.394C63.5893 28.4596 63.9468 27.5654 64.5697 26.8682L66.4697 24.5682C67.0921 23.8784 67.5709 23.0715 67.8782 22.1947C68.1855 21.3179 68.3152 20.3887 68.2597 19.4612C68.1921 18.4369 67.8961 17.4406 67.3934 16.5455C66.8908 15.6504 66.1942 14.8791 65.3547 14.2882L51.1137 4.81923C50.6094 4.51308 50.2238 4.04494 50.02 3.49131C49.8162 2.93767 49.8062 2.33128 49.9917 1.77123C50.1586 1.22351 50.5085 0.749686 50.9828 0.428969C51.4572 0.108253 52.0272 -0.0399172 52.5977 0.00922924L68.0267 2.95723C75.3996 4.28312 82.2265 7.72853 87.6727 12.8722L92.9057 18.1572L97.3727 22.7912C97.8325 23.3263 98.1278 23.9829 98.2231 24.6819C98.3184 25.381 98.2096 26.0926 97.9097 26.7312C97.6882 27.1597 97.61 27.648 97.6865 28.1242C97.763 28.6005 97.9902 29.0396 98.3347 29.3772L100.235 31.3182C101.58 30.8474 103.038 30.8052 104.409 31.1974C105.779 31.5896 106.994 32.3969 107.887 33.5082C109.193 34.9762 110.674 36.1422 111.856 37.7462C112.319 38.4246 112.534 39.2422 112.464 40.0606C112.394 40.8791 112.043 41.6483 111.472 42.2382L101.41 52.5382C100.761 53.1728 99.8871 53.5244 98.9796 53.5161C98.0721 53.5079 97.2049 53.1404 96.5677 52.4942L92.2197 48.0232C91.3793 47.0966 90.8038 45.9609 90.5536 44.7352C90.3034 43.5095 90.3877 42.2391 90.7977 41.0572C90.2804 40.3412 89.6091 39.7502 88.8333 39.3279C88.0575 38.9055 87.1968 38.6624 86.3147 38.6165C85.4325 38.5707 84.5513 38.7232 83.7358 39.0629C82.9204 39.4025 82.1915 39.9207 81.6027 40.5792L79.8647 42.2342C79.217 42.8892 78.3602 43.2963 77.4433 43.3847C76.5265 43.4732 75.6076 43.2373 74.8467 42.7182L68.9607 48.7432C68.6795 49.0345 68.2975 49.2072 67.8931 49.2258C67.4886 49.2444 67.0924 49.1075 66.7857 48.8432C66.4642 48.5625 66.2611 48.1703 66.2173 47.7457C66.1735 47.3211 66.2923 46.8957 66.5497 46.5552L72.5847 40.3332L66.6847 34.3252L38.7587 62.9782L44.6437 69.0202L59.5627 53.7202C59.7076 53.5628 59.8835 53.437 60.0793 53.3507C60.2751 53.2644 60.4867 53.2195 60.7007 53.2189C60.9147 53.2182 61.1265 53.2618 61.3228 53.3469C61.5192 53.4319 61.6958 53.5567 61.8417 53.7132C61.9976 53.8667 62.1213 54.0498 62.2056 54.2516C62.2898 54.4535 62.3329 54.6702 62.3324 54.889C62.3318 55.1078 62.2876 55.3242 62.2023 55.5257C62.117 55.7271 61.9924 55.9096 61.8357 56.0622L46.5287 71.7662C46.8865 72.7955 46.9461 73.9049 46.7005 74.9665C46.4549 76.0281 45.9142 76.9987 45.1407 77.7662L16.1977 107.389C15.1907 108.299 13.8707 108.785 12.5139 108.744C11.1572 108.703 9.8689 108.139 8.91869 107.169L1.53869 99.5892ZM77.3147 40.0582L80.3147 37.3952C82.0983 35.9072 84.3903 35.1706 86.7068 35.3409C89.0234 35.5113 91.183 36.5753 92.7297 38.3082L97.6087 33.3082L95.5407 31.1312C94.8995 30.2687 94.5187 29.2405 94.4434 28.1684C94.368 27.0962 94.6013 26.025 95.1157 25.0812L86.1157 15.8922C81.3842 11.0148 75.2625 7.71673 68.5867 6.44823L56.0607 4.10223L67.4057 11.7182C69.2953 13.1382 70.6343 15.1693 71.1948 17.4655C71.7553 19.7618 71.5026 22.1813 70.4797 24.3122C69.9404 25.3728 69.2654 26.3588 68.4717 27.2452L67.1187 28.8622C66.9497 29.0559 66.8251 29.2843 66.7537 29.5312C66.7327 29.7152 66.9997 29.9932 67.1757 30.1732L76.0977 39.3192C76.3557 39.5832 76.8587 40.3552 77.3167 40.0582M99.0497 50.3252L109.376 39.7252L105.076 35.3022C104.534 34.7491 103.829 34.3843 103.065 34.2617C102.301 34.1391 101.517 34.2652 100.83 34.6212L94.0527 41.5932C93.7183 42.2642 93.5862 43.0179 93.6727 43.7626C93.7592 44.5073 94.0604 45.2108 94.5397 45.7872L99.0497 50.3252Z" fill="var(--fill-0, #FF832A)"/>
</svg>
