<svg preserveAspectRatio="none" width="100%" height="100%" overflow="visible" style="display: block;" viewBox="0 0 145.736 119.489" fill="none" xmlns="http://www.w3.org/2000/svg">
<g id="Grupo 818">
<path id="Trazado 2048" d="M109.108 116.294C97.3541 118.954 87.9081 121.025 76.0511 117.972C70.233 116.489 64.5255 114.603 58.9701 112.325L43.3051 105.894L17.1361 94.994C12.9715 93.3987 8.95227 91.4472 5.12312 89.161C2.08512 87.235 -0.860878 79.522 0.233122 75.149C0.900122 72.494 3.20712 70.827 5.68012 69.78L6.93512 60.666C8.72612 47.666 14.8031 32.448 24.3941 23.229C27.1732 20.5901 30.2965 18.3394 33.6791 16.538C35.6791 13.191 38.6461 11.938 42.1391 10.501L44.5721 8.07101C51.704 2.46886 60.6129 -0.381276 69.6721 0.0410111C79.0901 0.523011 87.2261 4.98301 93.5251 11.841C98.774 13.9865 103.584 17.079 107.714 20.964C117.634 30.036 123.014 42.345 125.214 55.611L126.72 58.343C128.204 62.0235 129.222 65.8755 129.748 69.809L133.488 73.373L139.076 79.746C144.992 86.493 149.294 98.795 141.563 105.76C138.503 108.465 134.809 110.354 130.825 111.253L120.437 113.734L109.108 116.294ZM10.1951 71.687C10.0161 74.035 5.88612 73.333 4.58512 76.457C4.52512 79.286 5.32312 83.866 8.04112 85.585C12.5881 88.462 17.5351 90.256 22.5231 92.332L53.2531 105.123C61.1151 108.573 69.2228 111.434 77.5091 113.681C83.6255 115.166 89.9854 115.352 96.1781 114.227L99.2781 113.719L109.648 111.519L125.902 107.862C129.814 107.115 133.569 105.702 137.002 103.684C143.37 99.665 141.655 92.168 137.957 86.024C134.746 80.689 130.321 76.406 125.725 72.308L123.345 62.082C122.895 60.4494 122.064 58.9468 120.92 57.698C120.142 51.6768 118.491 45.8009 116.02 40.255C114.2 36.414 112.459 32.661 109.181 29.507C116.751 46.107 119.297 63.928 120.592 82.061C120.692 83.422 120.533 84.524 119.303 85.193C118.496 85.632 116.458 85.475 116.324 84.093L115.376 74.282C113.795 57.922 110.357 38.982 101.383 25.166C98.7248 20.9798 95.0041 17.5734 90.6001 15.294L87.8791 12.563C83.3759 8.3181 77.6561 5.5904 71.5231 4.76301C64.8011 3.97601 56.6871 5.35201 50.7671 9.51801C54.7071 9.91801 58.0591 10.747 61.1421 12.985C65.7611 16.5176 69.4648 21.1071 71.9421 26.368C78.8091 39.94 83.0341 59.879 84.9001 75.041L86.7571 90.112C86.8281 90.5606 86.7946 91.0196 86.6593 91.4532C86.524 91.8868 86.2906 92.2833 85.9771 92.612C85.6743 92.8504 85.322 93.0181 84.946 93.1027C84.57 93.1873 84.1799 93.1867 83.8041 93.101C82.0311 92.284 82.2101 90.454 82.0331 88.893L81.2821 82.248C79.5551 66.961 75.9131 46.648 69.9051 32.68C65.8331 23.211 58.8001 11.894 47.4661 14.661C56.9461 17.79 62.8551 26.726 66.9831 35.336C71.3947 44.8359 74.1716 55.0121 75.1971 65.436C75.5095 67.6896 75.5525 69.9723 75.3251 72.236C74.6954 72.6879 74.186 73.2873 73.8415 73.9816C73.497 74.676 73.328 75.4442 73.3491 76.219C73.3325 80.6456 73.7411 85.0635 74.5691 89.412C74.8441 90.92 74.3211 92.193 72.9411 92.556C72.6092 92.6362 72.2636 92.6419 71.9293 92.5727C71.5949 92.5034 71.28 92.3609 71.0073 92.1554C70.7346 91.9499 70.5108 91.6865 70.3521 91.3842C70.1933 91.0819 70.1035 90.7482 70.0891 90.407L69.0161 82.667C68.6713 79.7879 68.678 76.8775 69.0361 74C69.2868 72.427 69.9535 70.9497 70.9671 69.721C70.1001 55.186 65.4341 38.136 56.4001 26.578C54.1855 23.5176 51.1651 21.1318 47.6751 19.686C45.075 18.5597 42.1671 18.3596 39.4371 19.119C27.5001 22.985 19.9491 34.174 15.5561 45.663C12.5075 54.0289 10.7014 62.7974 10.1951 71.687Z" fill="var(--fill-0, #FF832A)"/>
<path id="Trazado 2049" d="M127.12 79.068C127.353 78.151 129.327 77.883 130.02 78.203C134.145 80.113 126.475 94.103 117.044 96.589L104.672 99.845L98.9041 101.172L95.5631 101.578L86.8061 102.263C81.7242 102.641 76.6213 102.642 71.5391 102.268L60.9231 101.533C42.5921 100.264 22.8141 89.896 7.91412 79.367C7.4906 78.9648 7.22055 78.4275 7.15046 77.8476C7.08037 77.2677 7.21463 76.6816 7.53012 76.19C7.9233 75.7227 8.48384 75.4279 9.09168 75.3689C9.69953 75.3098 10.3063 75.4911 10.7821 75.874C19.3095 81.9319 28.4675 87.0491 38.0961 91.136C45.9268 94.4932 54.2603 96.5275 62.7571 97.156L67.9941 97.528L74.7351 97.84L83.9181 97.829L89.4301 97.551L95.4511 97.073C98.3854 96.7539 101.285 96.1705 104.114 95.33C108.52 94.178 112.855 93.27 117.122 91.73C119.439 90.7552 121.467 89.2012 123.011 87.217C125.04 84.8875 126.452 82.0859 127.117 79.069" fill="var(--fill-0, #FF832A)"/>
</g>
</svg>
