<svg preserveAspectRatio="none" width="100%" height="100%" overflow="visible" style="display: block;" viewBox="0 0 84.069 117.395" fill="none" xmlns="http://www.w3.org/2000/svg">
<g id="Grupo 826">
<path id="Trazado 2067" d="M84.022 107.156C84.022 112.041 79.028 117.369 73.956 117.371L10.256 117.395C7.65774 117.124 5.2283 115.98 3.3652 114.149C1.50209 112.317 0.315645 109.908 0 107.315L0 58.295C0.267696 55.5714 1.54514 53.0466 3.58092 51.2175C5.6167 49.3885 8.26335 48.3876 11 48.412L11.114 26.212C11.713 12.65 22.243 1.79 35.574 0H48.794C55.4873 0.838728 61.6529 4.06566 66.1569 9.08743C70.661 14.1092 73.2007 20.5882 73.309 27.333L73.34 48.38C76.0393 48.4114 78.6308 49.4434 80.6129 51.276C82.595 53.1086 83.8265 55.6115 84.069 58.3L84.022 107.156ZM46.567 11.228C54.815 11.64 61.832 19.168 61.881 26.239L62.037 48.527L67.728 48.51L67.702 27.81C67.6807 22.277 65.6172 16.9466 61.9074 12.8415C58.1975 8.73637 53.1026 6.14553 47.6 5.566H36.792C31.3069 6.1385 26.224 8.70883 22.5118 12.7873C18.7995 16.8658 16.7174 22.1673 16.662 27.682L16.647 48.51L22.319 48.528L22.439 26.801C22.6558 22.759 24.3508 18.9378 27.2015 16.0642C30.0523 13.1905 33.8599 11.4651 37.9 11.216C40.7884 11.0505 43.6841 11.0545 46.572 11.228M56.29 48.528L56.281 26.497C55.944 23.831 54.649 21.3785 52.6375 19.5966C50.626 17.8147 48.0352 16.825 45.348 16.812H38.928C35.9813 16.862 33.1746 18.0783 31.1231 20.1942C29.0717 22.3102 27.9428 25.1531 27.984 28.1L28.013 48.524L56.29 48.528ZM78.425 106.4L78.416 59.149C78.3809 57.8543 77.8497 56.6226 76.9321 55.7086C76.0145 54.7945 74.7808 54.2681 73.486 54.238H10.577C9.28237 54.2683 8.04887 54.7949 7.13151 55.7089C6.21414 56.6229 5.68304 57.8545 5.648 59.149L5.64 106.482C5.67509 107.725 6.13582 108.918 6.94512 109.861C7.75442 110.805 8.86321 111.442 10.086 111.666H73.973C75.2111 111.44 76.3321 110.791 77.1441 109.829C77.9561 108.867 78.4085 107.653 78.424 106.395" fill="var(--fill-0, #FF832A)"/>
<path id="Trazado 2068" d="M48.285 104.032L36.595 104.059C35.9033 104.055 35.2365 103.801 34.7173 103.344C34.198 102.887 33.8613 102.257 33.769 101.572L33.669 85.004C30.649 82.011 28.599 78.017 29.009 73.718C29.2229 71.3608 30.0573 69.1023 31.4274 67.1722C32.7974 65.2422 34.6543 63.7095 36.809 62.73C39.1113 61.6804 41.6685 61.3208 44.1709 61.6945C46.6734 62.0683 49.0139 63.1595 50.909 64.836C52.3479 66.0954 53.4967 67.6517 54.2764 69.3977C55.0561 71.1437 55.4481 73.038 55.4254 74.9501C55.4026 76.8621 54.9658 78.7466 54.1448 80.4736C53.3239 82.2006 52.1384 83.7292 50.67 84.954L50.648 101.391C50.6407 102.042 50.3971 102.668 49.9627 103.153C49.5282 103.639 48.9324 103.949 48.286 104.028M45.007 98.356L45.014 83.356C45.0498 82.8869 45.1977 82.4332 45.4451 82.033C45.6925 81.6328 46.0323 81.2977 46.436 81.056C47.7869 80.1615 48.8147 78.8567 49.368 77.3339C49.9214 75.8111 49.9709 74.1509 49.5093 72.5978C49.0477 71.0447 48.0995 69.681 46.8043 68.7076C45.5091 67.7341 43.9355 67.2025 42.3154 67.191C40.6952 67.1795 39.1142 67.6887 37.8053 68.6436C36.4964 69.5985 35.5289 70.9486 35.0453 72.495C34.5617 74.0413 34.5876 75.7021 35.1192 77.2326C35.6508 78.7631 36.66 80.0824 37.998 80.996C38.4059 81.2423 38.7424 81.591 38.9741 82.0074C39.2058 82.4238 39.3247 82.8935 39.319 83.37V98.386L45.007 98.356Z" fill="var(--fill-0, #FF832A)"/>
</g>
</svg>
