<svg preserveAspectRatio="none" width="100%" height="100%" overflow="visible" style="display: block;" viewBox="0 0 125.264 102.372" fill="none" xmlns="http://www.w3.org/2000/svg">
<g id="Grupo 806">
<path id="Trazado 2021" d="M59.6 5.29073C58.6815 5.2424 57.763 5.38465 56.9022 5.70854C56.0414 6.03243 55.2569 6.53095 54.5981 7.17274C53.9393 7.81454 53.4205 8.58571 53.0742 9.43777C52.7279 10.2898 52.5617 11.2043 52.586 12.1237L52.6 24.8157L66.253 24.8537C69.3892 24.8899 72.3827 26.1697 74.5757 28.412C76.7686 30.6543 77.9816 33.6755 77.948 36.8117L77.89 73.7407C77.8228 76.7678 76.5799 79.6499 74.4246 81.7765C72.2692 83.9031 69.3707 85.1072 66.343 85.1337L51.423 85.2047C39.0766 85.7428 27.2108 90.1442 17.5 97.7877L12.458 102.372L12.432 85.1347C10.8449 85.2247 9.25608 84.9921 7.76136 84.4511C6.26663 83.9101 4.89703 83.0718 3.73519 81.9869C2.57336 80.902 1.6434 79.5929 1.00143 78.1387C0.359461 76.6845 0.0187976 75.1152 0 73.5257L0.027 36.2257C0.027 29.5507 5.851 24.7877 12.287 24.7947L47.278 24.8307L47.255 12.1007C47.2322 10.5087 47.5283 8.92827 48.1259 7.4525C48.7235 5.97672 49.6104 4.63549 50.7344 3.50784C51.8584 2.3802 53.1968 1.48895 54.6706 0.886625C56.1444 0.284301 57.7239 -0.0169134 59.316 0.000732799L113.475 0.0107328C115.034 0.0189716 116.576 0.334699 118.013 0.939829C119.45 1.54496 120.753 2.4276 121.848 3.5372C122.943 4.6468 123.808 5.96155 124.395 7.40614C124.981 8.85074 125.276 10.3968 125.264 11.9557L125.223 48.7467C125.196 50.331 124.849 51.8934 124.204 53.3405C123.558 54.7875 122.627 56.0894 121.467 57.1682C120.306 58.247 118.94 59.0805 117.45 59.6188C115.96 60.157 114.376 60.389 112.794 60.3007L112.76 77.5277L107.775 73.0207C101.221 67.8741 93.6699 64.1432 85.6 62.0637L86.922 56.9107C94.2454 58.7893 101.19 61.9157 107.452 66.1527L107.46 55.0087H113.683C116.883 54.7857 119.883 52.2877 119.892 48.8357L119.944 12.1077C119.978 11.2493 119.842 10.3927 119.543 9.58721C119.245 8.78177 118.789 8.04354 118.203 7.4152C117.618 6.78687 116.913 6.2809 116.13 5.92654C115.348 5.57219 114.503 5.37648 113.644 5.35073L59.6 5.29073ZM66.444 79.7787C68.0385 79.7501 69.5616 79.1126 70.7012 77.997C71.8407 76.8815 72.5104 75.3722 72.573 73.7787L72.658 68.3517L72.641 63.7007L72.581 36.4007C72.5365 34.7156 71.8306 33.1157 70.616 31.9467C69.4014 30.7778 67.7756 30.1337 66.09 30.1537L11.69 30.1607C10.0587 30.1653 8.49092 30.7938 7.30831 31.9175C6.12569 33.0412 5.41786 34.5748 5.33 36.2037V73.7287C5.33 77.4007 8.853 80.0007 12.238 79.8207H17.73L17.748 90.9797C27.7753 84.1634 39.5205 80.3108 51.637 79.8637L66.444 79.7787Z" fill="var(--fill-0, #FF832A)"/>
<path id="Trazado 2022" d="M56.752 49.2177L20.546 49.2227C20.1931 49.2481 19.8387 49.2028 19.5035 49.0894C19.1683 48.9761 18.8591 48.7971 18.594 48.5628C18.3289 48.3285 18.1132 48.0436 17.9595 47.7249C17.8058 47.4062 17.7172 47.0601 17.699 46.7067C17.675 46.3586 17.7208 46.0092 17.8336 45.679C17.9463 45.3488 18.1239 45.0444 18.3557 44.7836C18.5876 44.5228 18.8692 44.311 19.184 44.1604C19.4988 44.0098 19.8405 43.9236 20.189 43.9067H57.005C57.7092 43.9403 58.3711 44.2522 58.8453 44.7738C59.3195 45.2954 59.567 45.9841 59.5335 46.6882C59.4999 47.3924 59.188 48.0544 58.6664 48.5285C58.1448 49.0027 57.4562 49.2503 56.752 49.2167" fill="var(--fill-0, #FF832A)"/>
<path id="Trazado 2023" d="M36.659 62.6437L20.125 62.6887C19.4495 62.6459 18.8173 62.3414 18.3628 61.8398C17.9083 61.3382 17.6673 60.6792 17.691 60.0027C17.7044 59.2946 17.9978 58.6205 18.507 58.1282C19.0163 57.6358 19.6998 57.3653 20.408 57.3757L36.302 57.3877C36.9476 57.4126 37.5619 57.6728 38.0288 58.1194C38.4958 58.5659 38.7833 59.1679 38.837 59.8117C38.925 60.9117 38.149 62.6397 36.659 62.6437Z" fill="var(--fill-0, #FF832A)"/>
</g>
</svg>
