<svg preserveAspectRatio="none" width="100%" height="100%" overflow="visible" style="display: block;" viewBox="0 0 75.0001 76" fill="none" xmlns="http://www.w3.org/2000/svg">
<g id="Frame 2147239083">
<path id="Frame 2147239083 [Frame Background]" d="M75.0001 37.5C75.0001 16.7893 58.2107 0 37.5001 0C16.7894 0 5.95711e-05 16.7893 5.95711e-05 37.5V38.5C5.95711e-05 59.2107 16.7894 76 37.5001 76C58.2107 76 75.0001 59.2107 75.0001 38.5V37.5Z" fill="var(--fill-0, black)"/>
<g id="Frame">
<g id="Frame [Frame Background]">
</g>
<path id="Vector" d="M47.6941 39.052L32.2461 54.501C31.9544 54.7821 31.564 54.9375 31.159 54.9337C30.7539 54.93 30.3665 54.7674 30.0801 54.481C29.7937 54.1945 29.6311 53.8071 29.6274 53.4021C29.6236 52.997 29.779 52.6067 30.0601 52.315L44.4171 37.959L30.0601 23.604C29.9121 23.4615 29.7941 23.2909 29.7129 23.1022C29.6316 22.9135 29.5888 22.7105 29.5869 22.5051C29.585 22.2997 29.6241 22.0959 29.7018 21.9058C29.7795 21.7156 29.8944 21.5429 30.0397 21.3976C30.1849 21.2523 30.3577 21.1375 30.5478 21.0597C30.738 20.982 30.9417 20.9429 31.1471 20.9448C31.3526 20.9467 31.5555 20.9896 31.7442 21.0708C31.9329 21.152 32.1035 21.2701 32.2461 21.418L47.6941 36.865C47.8377 37.0085 47.9516 37.1789 48.0294 37.3664C48.1071 37.554 48.1471 37.755 48.1471 37.958C48.1471 38.161 48.1071 38.362 48.0294 38.5496C47.9516 38.7371 47.8377 38.9085 47.6941 39.052Z" fill="var(--fill-0, #FF832A)"/>
</g>
</g>
</svg>
