<svg preserveAspectRatio="none" width="100%" height="100%" overflow="visible" style="display: block;" viewBox="0 0 75.0001 75.0001" fill="none" xmlns="http://www.w3.org/2000/svg">
<g id="Frame 2147239083">
<path id="Frame 2147239083 [Frame Background]" d="M75.0001 37.5001C75.0001 16.7895 58.2107 0.000144534 37.5001 0.000144534C16.7894 0.000144534 5.95711e-05 16.7895 5.95711e-05 37.5001C5.95711e-05 58.2108 16.7894 75.0001 37.5001 75.0001C58.2107 75.0001 75.0001 58.2108 75.0001 37.5001Z" fill="var(--fill-0, black)"/>
<g id="Frame">
<g id="Frame [Frame Background]">
</g>
<path id="Vector" d="M47.6941 38.5611L32.2461 54.0101C31.9544 54.2912 31.564 54.4466 31.159 54.4429C30.7539 54.4391 30.3665 54.2765 30.0801 53.9901C29.7937 53.7037 29.6311 53.3163 29.6274 52.9112C29.6236 52.5062 29.779 52.1158 30.0601 51.8241L44.4171 37.4681L30.0601 23.1131C29.9121 22.9706 29.7941 22.8 29.7129 22.6113C29.6316 22.4226 29.5888 22.2196 29.5869 22.0142C29.585 21.8088 29.6241 21.6051 29.7018 21.4149C29.7795 21.2248 29.8944 21.052 30.0397 20.9067C30.1849 20.7615 30.3577 20.6466 30.5478 20.5689C30.738 20.4911 30.9417 20.4521 31.1471 20.454C31.3526 20.4559 31.5555 20.4987 31.7442 20.58C31.9329 20.6612 32.1035 20.7792 32.2461 20.9271L47.6941 36.3741C47.8377 36.5176 47.9516 36.688 48.0294 36.8756C48.1071 37.0631 48.1471 37.2641 48.1471 37.4671C48.1471 37.6702 48.1071 37.8712 48.0294 38.0587C47.9516 38.2463 47.8377 38.4177 47.6941 38.5611Z" fill="var(--fill-0, #FF832A)"/>
</g>
</g>
</svg>
