<svg preserveAspectRatio="none" width="100%" height="100%" overflow="visible" style="display: block;" viewBox="0 0 75.33 75.329" fill="none" xmlns="http://www.w3.org/2000/svg">
<g id="Frame 2147239083">
<path id="Frame 2147239083 [Frame Background]" d="M75.33 37.6645C75.33 16.863 58.4668 0 37.665 0C16.8632 0 0 16.863 0 37.6645C0 58.466 16.8632 75.329 37.665 75.329C58.4668 75.329 75.33 58.466 75.33 37.6645Z" fill="var(--fill-0, black)"/>
<g id="Frame">
<g id="Frame [Frame Background]">
</g>
<path id="Vector" d="M48.027 38.757L32.579 54.206C32.2873 54.4871 31.897 54.6425 31.4919 54.6387C31.0869 54.635 30.6995 54.4724 30.413 54.186C30.1266 53.8995 29.964 53.5121 29.9603 53.1071C29.9565 52.702 30.1119 52.3117 30.393 52.02L44.75 37.664L30.393 23.309C30.2451 23.1665 30.127 22.9959 30.0458 22.8072C29.9646 22.6185 29.9217 22.4155 29.9198 22.2101C29.9179 22.0047 29.957 21.8009 30.0347 21.6108C30.1125 21.4206 30.2273 21.2479 30.3726 21.1026C30.5179 20.9573 30.6906 20.8425 30.8808 20.7647C31.0709 20.687 31.2747 20.6479 31.4801 20.6498C31.6855 20.6517 31.8885 20.6946 32.0772 20.7758C32.2659 20.857 32.4365 20.9751 32.579 21.123L48.027 36.57C48.1706 36.7135 48.2846 36.8839 48.3623 37.0714C48.44 37.259 48.48 37.46 48.48 37.663C48.48 37.866 48.44 38.067 48.3623 38.2546C48.2846 38.4421 48.1706 38.6135 48.027 38.757Z" fill="var(--fill-0, #FF832A)"/>
</g>
</g>
</svg>
