<svg preserveAspectRatio="none" width="100%" height="100%" overflow="visible" style="display: block;" viewBox="0 0 125.225 123.802" fill="none" xmlns="http://www.w3.org/2000/svg">
<g id="Grupo 13">
<path id="Trazado 20" d="M65.8095 119.702C63.7578 119.053 61.557 119.043 59.4995 119.674L50.4745 122.399C47.4523 123.337 44.2063 123.264 41.2297 122.19C38.253 121.115 35.7081 119.099 33.9815 116.447L28.6415 108.316C27.5474 106.656 25.9891 105.353 24.1605 104.572L15.2415 100.739C12.4051 99.5643 10.0232 97.506 8.44976 94.8698C6.87629 92.2336 6.19516 89.1601 6.50754 86.106L7.67654 75.879C7.88852 73.9239 7.52094 71.9497 6.61954 70.202L2.21054 61.402C-0.808458 55.378 0.870542 48.487 5.72954 43.973L11.6765 38.447C13.4684 36.9195 14.7457 34.8767 15.3345 32.597L17.5175 23.303C18.177 20.2946 19.7887 17.579 22.1136 15.5591C24.4384 13.5392 27.3526 12.3227 30.4235 12.09L40.6425 11.47C42.6755 11.338 44.624 10.6073 46.2425 9.36998L53.8115 3.70498C56.3423 1.79193 59.4281 0.756846 62.6005 0.756846C65.773 0.756846 68.8588 1.79193 71.3895 3.70498L79.0995 9.47298C80.7551 10.7005 82.7404 11.4041 84.7995 11.493L94.0655 11.993C97.2654 12.1269 100.332 13.3093 102.794 15.3579C105.256 17.4065 106.976 20.2077 107.689 23.33L109.804 32.397C110.38 34.7553 111.681 36.8739 113.524 38.455L119.602 44.102C121.977 46.221 123.593 49.0589 124.204 52.1826C124.815 55.3062 124.388 58.5441 122.987 61.402L118.342 70.713C117.59 72.3202 117.307 74.1071 117.526 75.868L118.678 85.878C119.021 88.965 118.357 92.0804 116.785 94.7592C115.213 97.4381 112.816 99.5367 109.954 100.742L100.875 104.658C99.0604 105.466 97.5245 106.791 96.4585 108.467L91.1095 116.596C89.3782 119.21 86.8432 121.19 83.8875 122.236C80.9318 123.282 77.716 123.338 74.7255 122.396L65.8095 119.702ZM66.7035 115.812L76.0315 118.612C78.1677 119.278 80.4621 119.234 82.5713 118.487C84.6804 117.74 86.4909 116.33 87.7315 114.468L93.2875 106.048C94.8248 103.735 97.0134 101.929 99.5765 100.859L108.312 97.113C110.402 96.2576 112.158 94.7447 113.313 92.8031C114.467 90.8614 114.958 88.5965 114.712 86.351L113.561 76.38C113.245 73.6901 113.725 70.9666 114.942 68.547L119.574 59.228C120.505 57.2449 120.772 55.0144 120.335 52.8675C119.899 50.7206 118.782 48.7717 117.15 47.31L110.329 40.891C108.17 38.9181 106.654 36.3425 105.977 33.498L103.677 23.818C103.157 21.6887 101.966 19.7829 100.28 18.3821C98.5946 16.9814 96.503 16.1599 94.3145 16.039L84.0725 15.416C81.3902 15.2371 78.8194 14.2742 76.6795 12.647L68.9605 6.87698C67.1605 5.49483 64.9583 4.7383 62.6888 4.72242C60.4194 4.70653 58.2068 5.43216 56.3875 6.78898L48.5285 12.647C46.3143 14.316 43.6565 15.2939 40.8885 15.458L30.4515 16.112C28.3408 16.2854 26.3396 17.1245 24.7363 18.5083C23.1331 19.8921 22.0105 21.7492 21.5305 23.812L19.2305 33.503C18.5296 36.4034 16.97 39.025 14.7555 41.025L8.05554 47.312C6.40581 48.8019 5.28409 50.7869 4.85889 52.9688C4.43369 55.1507 4.72798 57.4116 5.69754 59.412L10.1825 68.389C11.4449 70.8541 11.9508 73.6373 11.6365 76.389L10.4855 86.347C10.2362 88.5938 10.7271 90.8605 11.8837 92.8028C13.0403 94.7451 14.7994 96.2567 16.8935 97.108L24.7615 100.452C27.6619 101.547 30.1609 103.497 31.9275 106.045L37.4775 114.469C38.6924 116.305 40.4648 117.703 42.5337 118.456C44.6026 119.209 46.8586 119.278 48.9695 118.652L58.6045 115.787C61.2473 114.993 64.0663 115.001 66.7045 115.81" fill="var(--fill-0, #FF832A)"/>
<path id="Trazado 21" d="M79.0995 123.801C77.5453 123.799 75.9997 123.569 74.5125 123.117L65.5925 120.417C63.6823 119.81 61.6325 119.801 59.7165 120.389L50.6915 123.114C47.5147 124.097 44.1039 124.019 40.9757 122.89C37.8474 121.762 35.172 119.645 33.3545 116.86L28.0125 108.725C27.0001 107.186 25.5566 105.981 23.8625 105.258L14.9455 101.425C11.9543 100.196 9.44226 98.0307 7.78648 95.253C6.1307 92.4753 5.42052 89.2356 5.76254 86.02L6.93254 75.794C7.13053 73.9834 6.78852 72.1546 5.94954 70.538L1.54054 61.738C0.0733863 58.7018 -0.361207 55.2693 0.302956 51.9633C0.96712 48.6573 2.69364 45.659 5.21954 43.425L11.1665 37.901C12.8553 36.4799 14.0574 34.5662 14.6045 32.428L16.7875 23.134C17.4705 19.962 19.1648 17.0975 21.6158 14.9713C24.0668 12.8451 27.1419 11.5722 30.3785 11.344L40.5975 10.724C42.4864 10.6034 44.2967 9.92319 45.7975 8.76998L53.3665 3.10098C56.026 1.08886 59.2697 5.75205e-05 62.6045 5.75205e-05C65.9394 5.75205e-05 69.1831 1.08886 71.8425 3.10098L79.5525 8.86898C81.0891 10.0107 82.9339 10.663 84.8465 10.741L94.1115 11.241C97.471 11.3919 100.689 12.6383 103.273 14.7898C105.858 16.9413 107.667 19.8796 108.425 23.156L110.54 32.223C111.081 34.4365 112.306 36.4234 114.04 37.902L120.118 43.548C122.608 45.7799 124.302 48.7637 124.942 52.0461C125.581 55.3285 125.132 58.7301 123.663 61.734L119.017 71.048C118.328 72.525 118.071 74.1662 118.274 75.783L119.426 85.792C119.794 89.04 119.1 92.32 117.446 95.1397C115.792 97.9594 113.268 100.167 110.254 101.43L101.175 105.346C99.4966 106.099 98.076 107.327 97.0885 108.879L91.7395 117.008C90.3649 119.103 88.4888 120.822 86.2815 122.009C84.0742 123.195 81.6055 123.81 79.0995 123.801ZM66.0265 118.986L74.9465 121.686C77.7828 122.582 80.8338 122.53 83.6378 121.538C86.4418 120.545 88.8464 118.667 90.4875 116.186L95.8365 108.057C96.9847 106.261 98.634 104.841 100.581 103.972L109.661 100.056C112.379 98.919 114.655 96.9311 116.147 94.3905C117.639 91.8499 118.267 88.8938 117.937 85.966L116.785 75.957C116.551 74.0519 116.859 72.1196 117.675 70.382L122.321 61.068C123.644 58.3534 124.045 55.281 123.463 52.3176C122.881 49.3541 121.348 46.6616 119.097 44.649L113.019 39.001C111.061 37.3233 109.682 35.0712 109.079 32.565L106.965 23.501C106.281 20.5403 104.646 17.8851 102.31 15.9414C99.9743 13.9978 97.0662 12.8726 94.0305 12.738L84.7655 12.238C82.5565 12.1456 80.4266 11.3898 78.6535 10.069L70.9445 4.30098C68.5436 2.48451 65.6152 1.50158 62.6045 1.50158C59.5939 1.50158 56.6655 2.48451 54.2645 4.30098L46.6945 9.96898C44.96 11.2987 42.8688 12.0819 40.6875 12.219L30.4685 12.839C27.5544 13.0494 24.7873 14.2002 22.5833 16.1182C20.3793 18.0362 18.8574 20.6178 18.2465 23.475L16.0635 32.768C15.4454 35.196 14.0911 37.3732 12.1865 39.001L6.23954 44.523C1.41054 49.01 0.0915423 55.501 2.88054 61.068L7.28954 69.868C8.26045 71.7451 8.65431 73.8675 8.42154 75.968L7.25154 86.19C6.94713 89.0858 7.59034 92.0023 9.0846 94.5014C10.5789 97.0006 12.8435 98.9475 15.5385 100.05L24.4555 103.883C26.4209 104.72 28.0961 106.117 29.2715 107.901L34.6135 116.037C36.2535 118.552 38.6688 120.463 41.493 121.481C44.3172 122.499 47.3964 122.568 50.2635 121.678L59.2885 118.953C61.4868 118.277 63.8389 118.287 66.0315 118.981M46.0895 119.818C44.2627 119.819 42.4638 119.369 40.8528 118.508C39.2419 117.646 37.8687 116.4 36.8555 114.88L31.3055 106.456C29.6231 104.029 27.2389 102.174 24.4725 101.14L16.5995 97.801C14.3567 96.8858 12.4735 95.2641 11.2357 93.1819C9.99782 91.0997 9.47291 88.6705 9.74054 86.263L10.8915 76.294C11.1893 73.6868 10.7091 71.0498 9.51154 68.715L5.02654 59.738C3.98288 57.5945 3.66383 55.1701 4.11743 52.8296C4.57102 50.4891 5.77271 48.3593 7.54154 46.761L14.2415 40.474C16.3501 38.5758 17.8349 36.0839 18.5005 33.326L20.8005 23.635C21.3147 21.4151 22.5223 19.4166 24.2483 17.929C25.9743 16.4414 28.1291 15.542 30.4005 15.361L40.8375 14.707C43.4605 14.5518 45.9791 13.6246 48.0765 12.042L55.9355 6.18698C57.8855 4.73672 60.2547 3.96087 62.6848 3.97675C65.1149 3.99262 67.4737 4.79937 69.4045 6.27498L77.1235 12.045C79.1462 13.5843 81.5757 14.4969 84.1115 14.67L94.3525 15.293C96.7047 15.413 98.9547 16.2917 100.766 17.7975C102.577 19.3033 103.851 21.3552 104.399 23.646L106.699 33.326C107.338 36.0296 108.78 38.4769 110.835 40.347L117.656 46.766C119.41 48.3347 120.61 50.4293 121.075 52.7366C121.541 55.0438 121.247 57.4397 120.238 59.566L115.606 68.885C114.453 71.1735 114.001 73.7509 114.306 76.295L115.457 86.265C115.72 88.6704 115.194 91.0961 113.959 93.1768C112.723 95.2574 110.845 96.8803 108.608 97.801L99.8715 101.545C97.4413 102.554 95.367 104.264 93.9135 106.458L88.3565 114.878C87.0298 116.877 85.0901 118.391 82.829 119.194C80.5679 119.996 78.1075 120.043 75.8175 119.327L66.4895 116.527C63.9913 115.759 61.3213 115.751 58.8185 116.504L49.1835 119.369C48.1773 119.668 47.1331 119.819 46.0835 119.818M62.5805 5.47798C60.5094 5.47761 58.4938 6.14807 56.8355 7.38898L48.9765 13.244C46.6464 15.0009 43.8488 16.0296 40.9355 16.201L30.4985 16.855C28.5469 17.0138 26.6964 17.7898 25.2153 19.0706C23.7341 20.3515 22.6992 22.0706 22.2605 23.979L19.9605 33.67C19.2307 36.7167 17.5952 39.4709 15.2695 41.57L8.57154 47.854C7.03919 49.2323 5.99609 51.0712 5.59931 53.0937C5.20253 55.1162 5.47354 57.2128 6.37154 59.068L10.8565 68.045C12.1857 70.6394 12.7176 73.5689 12.3855 76.465L11.2345 86.435C11.0061 88.5208 11.4641 90.6242 12.5391 92.4261C13.6142 94.2281 15.2476 95.6303 17.1915 96.42L25.0595 99.764C28.1005 100.909 30.7179 102.958 32.5595 105.635L38.1095 114.059C39.2409 115.755 40.8844 117.046 42.8005 117.744C44.7167 118.441 46.8054 118.508 48.7625 117.936L58.3975 115.071C61.1801 114.234 64.1487 114.242 66.9265 115.095L76.2545 117.895C78.236 118.517 80.3658 118.478 82.3237 117.786C84.2817 117.094 85.9621 115.785 87.1125 114.056L92.6685 105.636C94.2824 103.196 96.5869 101.293 99.2875 100.17L108.023 96.424C109.963 95.6289 111.593 94.2246 112.666 92.4227C113.739 90.6208 114.197 88.519 113.972 86.434L112.821 76.464C112.483 73.6316 112.987 70.7623 114.271 68.215L118.903 58.896C119.767 57.0578 120.013 54.9893 119.604 52.9996C119.196 51.0099 118.154 49.2058 116.636 47.857L109.815 41.438C107.545 39.3689 105.953 36.6623 105.248 33.673L102.948 23.993C102.473 22.0167 101.371 20.2473 99.8063 18.9494C98.242 17.6515 96.2996 16.895 94.2695 16.793L84.0275 16.17C81.1997 15.9794 78.4896 14.9642 76.2325 13.25L68.5115 7.47598C66.8029 6.18544 64.7218 5.48369 62.5805 5.47598" fill="var(--fill-0, #FF832A)"/>
<path id="Trazado 22" d="M103.418 61.895C103.421 69.9683 101.03 77.8612 96.5466 84.5755C92.0636 91.2897 85.6901 96.5237 78.2322 99.6155C70.7744 102.707 62.5671 103.518 54.6485 101.945C46.73 100.372 39.4558 96.4855 33.7459 90.7779C28.0361 85.0703 24.1472 77.7976 22.571 69.8797C20.9948 61.9617 21.8022 53.7541 24.8909 46.2951C27.9797 38.836 33.2112 32.4605 39.9237 27.9748C46.6362 23.4892 54.5282 21.095 62.6015 21.095C67.9605 21.0939 73.2672 22.1484 78.2187 24.1982C83.1702 26.2481 87.6694 29.2531 91.4595 33.0417C95.2496 36.8303 98.2564 41.3284 100.308 46.279C102.36 51.2297 103.416 56.536 103.418 61.895ZM99.4175 61.895C99.4203 54.6119 97.2631 47.4916 93.2188 41.4347C89.1745 35.3777 83.4247 30.6562 76.6967 27.8674C69.9688 25.0785 62.5648 24.3476 55.4214 25.7671C48.278 27.1865 41.716 30.6926 36.5654 35.8418C31.4148 40.991 27.907 47.552 26.4856 54.6951C25.0642 61.8381 25.7931 69.2422 28.5801 75.9709C31.3671 82.6996 36.0871 88.4507 42.1429 92.4967C48.1987 96.5426 55.3185 98.7018 62.6015 98.701C67.436 98.702 72.2233 97.7508 76.6901 95.9017C81.1569 94.0526 85.2158 91.3418 88.635 87.924C92.0541 84.5062 94.7666 80.4485 96.6175 75.9824C98.4685 71.5163 99.4216 66.7294 99.4225 61.895" fill="var(--fill-0, #FF832A)"/>
<path id="Trazado 23" d="M62.6005 103.443C54.3837 103.44 46.3523 101 39.5218 96.4324C32.6913 91.8649 27.3685 85.3747 24.2264 77.7823C21.0843 70.1899 20.2639 61.8363 21.869 53.7778C23.4741 45.7192 27.4326 38.3174 33.244 32.5084C39.0554 26.6994 46.4587 22.7439 54.518 21.1421C62.5772 19.5403 70.9305 20.3641 78.5216 23.5093C86.1127 26.6546 92.6007 31.98 97.1655 38.8124C101.73 45.6447 104.167 53.6771 104.167 61.894C104.153 72.9123 99.7689 83.4751 91.9762 91.2647C84.1835 99.0542 73.6188 103.434 62.6005 103.443ZM62.6005 21.843C54.6801 21.8463 46.9385 24.1981 40.3546 28.6009C33.7706 33.0037 28.64 39.2598 25.6113 46.5783C22.5826 53.8968 21.7919 61.9489 23.3392 69.7168C24.8864 77.4846 28.7022 84.6192 34.3039 90.2186C39.9057 95.818 47.042 99.6307 54.8104 101.175C62.5789 102.719 70.6308 101.925 77.9479 98.8927C85.2651 95.8609 91.5191 90.7276 95.9191 84.1418C100.319 77.556 102.668 69.8134 102.668 61.893C102.654 51.2723 98.4278 41.0908 90.9162 33.5826C83.4046 26.0744 73.2212 21.8517 62.6005 21.843ZM62.6005 99.45C55.1735 99.447 47.9141 97.2419 41.7402 93.1135C35.5663 88.9851 30.7551 83.1188 27.9149 76.2563C25.0748 69.3937 24.3332 61.8431 25.784 54.5592C27.2347 47.2752 30.8127 40.5849 36.0654 35.3343C41.3182 30.0836 48.0099 26.5083 55.2944 25.0605C62.579 23.6126 70.1293 24.3572 76.9907 27.2001C83.8521 30.043 89.7165 34.8565 93.8424 41.0321C97.9684 47.2077 100.171 54.4679 100.171 61.895C100.157 71.8537 96.1943 81.4006 89.151 88.4411C82.1077 95.4815 72.5593 99.4407 62.6005 99.45ZM62.6005 25.839C55.47 25.8419 48.5004 27.9591 42.573 31.9228C36.6456 35.8865 32.0265 41.5187 29.2998 48.1073C26.5731 54.696 25.8613 61.9452 27.2542 68.9383C28.6471 75.9315 32.0823 82.3547 37.1254 87.3957C42.1685 92.4367 48.5931 95.8693 55.5869 97.2593C62.5806 98.6493 69.8295 97.9344 76.417 95.2049C83.0045 92.4755 88.6348 87.8541 92.5961 81.9251C96.5573 75.996 98.6715 69.0255 98.6715 61.895C98.6599 52.3333 94.8553 43.1668 88.0928 36.4071C81.3303 29.6474 72.1622 25.8467 62.6005 25.839Z" fill="var(--fill-0, #FF832A)"/>
<path id="Trazado 24" d="M40.1215 65.79C38.8263 64.3712 38.1301 62.5063 38.1787 60.5859C38.2272 58.6654 39.0168 56.8381 40.382 55.4866C41.7473 54.135 43.5824 53.3639 45.5033 53.3348C47.4242 53.3056 49.2819 54.0205 50.6875 55.33L57.7585 62.325L74.1325 45.748C75.4962 44.3072 77.375 43.4654 79.3579 43.4067C81.3408 43.348 83.2661 44.0773 84.7125 45.435C85.4268 46.1003 86.0026 46.9002 86.4069 47.7886C86.8113 48.677 87.0362 49.6365 87.0688 50.6121C87.1014 51.5876 86.9411 52.56 86.5969 53.4735C86.2528 54.3869 85.7317 55.2234 85.0635 55.935L63.1395 78.13C61.8022 79.5338 59.9654 80.3537 58.0274 80.4119C56.0895 80.4702 54.2067 79.762 52.7875 78.441L40.1215 65.79ZM43.1725 63.259L55.1875 75.272C55.5421 75.6386 55.9701 75.9263 56.4435 76.1162C56.9169 76.3061 57.4251 76.394 57.9347 76.3741C58.4444 76.3541 58.9441 76.2269 59.4013 76.0006C59.8584 75.7744 60.2626 75.4542 60.5875 75.061L81.9985 53.374C82.3272 53.0615 82.5908 52.6871 82.7742 52.2722C82.9575 51.8574 83.057 51.4105 83.0668 50.957C83.0767 50.5036 82.9967 50.0527 82.8316 49.6304C82.6664 49.208 82.4193 48.8225 82.1045 48.496C81.7973 48.1611 81.4261 47.8911 81.0127 47.7021C80.5994 47.5132 80.1523 47.409 79.698 47.3957C79.2437 47.3825 78.7914 47.4605 78.3677 47.6251C77.9441 47.7897 77.5578 48.0375 77.2315 48.354L59.1015 66.597C58.7417 66.9543 58.2552 67.1548 57.748 67.1548C57.2409 67.1548 56.7544 66.9543 56.3945 66.597L48.0215 58.264C47.6936 57.9457 47.3062 57.695 46.8815 57.5264C46.4567 57.3578 46.0029 57.2745 45.5459 57.2813C45.089 57.2881 44.6378 57.3848 44.2182 57.5659C43.7987 57.7471 43.4189 58.0091 43.1005 58.337C42.7822 58.6649 42.5316 59.0523 42.363 59.4771C42.1944 59.9018 42.1111 60.3556 42.1179 60.8126C42.1247 61.2696 42.2214 61.7207 42.4025 62.1403C42.5836 62.5599 42.8456 62.9397 43.1735 63.258" fill="var(--fill-0, #FF832A)"/>
<path id="Trazado 25" d="M57.6706 81.17C56.6677 81.1792 55.6729 80.9895 54.7438 80.6119C53.8147 80.2343 52.9696 79.6762 52.2575 78.97L39.5925 66.315C38.8768 65.5996 38.3106 64.749 37.9269 63.8126C37.5432 62.8762 37.3496 61.8729 37.3575 60.861C37.3641 58.6385 38.2495 56.5089 39.8205 54.937C41.3215 53.4215 43.3581 52.5569 45.4908 52.5297C47.6236 52.5026 49.6816 53.3151 51.2205 54.792L57.7575 61.259L73.5995 45.215C74.3392 44.4271 75.2274 43.7933 76.2129 43.3498C77.1984 42.9064 78.2619 42.6621 79.3421 42.6311C80.4223 42.6 81.4981 42.7828 82.5074 43.169C83.5168 43.5551 84.4398 44.1369 85.2235 44.881C86.0269 45.6426 86.6706 46.5565 87.117 47.5695C87.5634 48.5824 87.8036 49.6742 87.8236 50.781C87.8536 51.8282 87.6715 52.8707 87.2883 53.8458C86.905 54.8209 86.3286 55.7084 85.5935 56.455L63.6685 78.655C62.0871 80.2489 59.9388 81.1517 57.6935 81.166H57.6665M40.6515 65.258L53.3165 77.909C53.892 78.4791 54.5755 78.9285 55.3269 79.2309C56.0784 79.5333 56.8826 79.6826 57.6925 79.67C59.5387 79.6579 61.3051 78.9155 62.6055 77.605L84.5295 55.405C85.1236 54.8008 85.5892 54.0827 85.8986 53.2939C86.2079 52.5051 86.3545 51.6619 86.3295 50.815C86.3144 49.9074 86.1184 49.012 85.753 48.1811C85.3876 47.3502 84.8602 46.6006 84.2015 45.976C83.5573 45.3672 82.7991 44.8917 81.9705 44.5768C81.142 44.2618 80.2594 44.1137 79.3734 44.1408C78.4874 44.1679 77.6155 44.3698 76.8078 44.7349C76 45.0999 75.2724 45.6209 74.6665 46.268L57.7665 63.378L50.1665 55.856C48.9093 54.6564 47.2308 53.999 45.4933 54.0258C43.7557 54.0525 42.0983 54.7612 40.8785 55.999C39.5896 57.2893 38.8635 59.0372 38.8585 60.861C38.8522 61.6757 39.0081 62.4836 39.3171 63.2374C39.6261 63.9913 40.0821 64.6761 40.6586 65.252M57.7105 77.124C57.1388 77.118 56.5741 76.9972 56.05 76.7687C55.5259 76.5402 55.0531 76.2088 54.6595 75.794L42.6385 63.787C41.8617 63.0155 41.4134 61.9733 41.3877 60.8788C41.362 59.7842 41.7608 58.7221 42.5005 57.915C42.8918 57.4939 43.3636 57.1557 43.8881 56.9206C44.4125 56.6854 44.9789 56.558 45.5535 56.546C46.1066 56.5306 46.657 56.6279 47.1713 56.8317C47.6857 57.0356 48.1532 57.3419 48.5456 57.732L56.9195 66.065C57.1385 66.2796 57.432 66.4011 57.7385 66.404C57.8918 66.4053 58.0439 66.3763 58.1858 66.3184C58.3278 66.2606 58.4569 66.1751 58.5655 66.067L76.6986 47.824C77.0729 47.4374 77.5234 47.1325 78.0215 46.9287C78.5196 46.725 79.0545 46.6266 79.5925 46.64C80.1653 46.6484 80.7306 46.7713 81.2552 47.0012C81.7798 47.2311 82.2532 47.5636 82.6475 47.979C83.4138 48.7812 83.8316 49.8539 83.8097 50.9631C83.7878 52.0723 83.3279 53.1277 82.5305 53.899L61.1185 75.586C60.6822 76.0556 60.157 76.434 59.5734 76.6992C58.9898 76.9644 58.3593 77.1112 57.7185 77.131H57.7065M43.7065 62.731L55.7165 74.744C55.9718 75.018 56.2794 75.2381 56.6213 75.3911C56.9631 75.5442 57.3321 75.6271 57.7065 75.635H57.7146C58.1578 75.6147 58.5927 75.5071 58.9942 75.3183C59.3958 75.1296 59.7561 74.8634 60.0545 74.535L81.4655 52.848C81.7267 52.6041 81.9366 52.3105 82.083 51.9845C82.2294 51.6586 82.3094 51.3067 82.3182 50.9494C82.3271 50.5922 82.2646 50.2368 82.1345 49.9039C82.0044 49.5711 81.8093 49.2675 81.5606 49.011C81.304 48.7415 80.9963 48.5259 80.6555 48.3767C80.3147 48.2275 79.9476 48.1477 79.5756 48.142C79.2392 48.1369 78.9053 48.2 78.5941 48.3275C78.2828 48.455 78.0006 48.6443 77.7645 48.884L59.6335 67.124C59.3849 67.3758 59.0879 67.5747 58.7603 67.7086C58.4327 67.8425 58.0814 67.9086 57.7276 67.903C57.0291 67.8985 56.3604 67.6198 55.8656 67.127L47.4925 58.794C47.2433 58.5465 46.9464 58.3525 46.6197 58.2235C46.2931 58.0946 45.9436 58.0335 45.5925 58.044C45.2198 58.0513 44.8522 58.1334 44.5118 58.2854C44.1713 58.4375 43.8648 58.6563 43.6105 58.929C43.1245 59.4481 42.862 60.1374 42.8796 60.8482C42.8972 61.5591 43.1935 62.2346 43.7045 62.729" fill="var(--fill-0, #FF832A)"/>
</g>
</svg>
