<svg preserveAspectRatio="none" width="100%" height="100%" overflow="visible" style="display: block;" viewBox="0 0 15.1498 18.0262" fill="none" xmlns="http://www.w3.org/2000/svg">
<g id="Grupo 778">
<path id="Trazado 2004" d="M7.57815 18.0262C6.10575 16.8202 4.72588 15.5055 3.45015 14.0932C2.02115 12.4932 0.0991496 9.96816 0.00614964 7.81316C-0.0407918 6.67092 0.181525 5.53365 0.65515 4.49316C1.37233 2.88295 2.62862 1.57326 4.2076 0.7897C5.78659 0.00614344 7.5894 -0.202218 9.30549 0.200508C11.0216 0.603235 12.5435 1.59183 13.6091 2.99601C14.6746 4.40018 15.2171 6.13201 15.1431 7.89316C14.9231 9.34664 14.3424 10.7218 13.4541 11.8932C11.7696 14.1832 9.79436 16.2445 7.57815 18.0252M7.57815 17.0492C9.97815 14.9922 14.4271 10.6822 14.4081 7.54916C14.4064 6.64586 14.2255 5.75188 13.8759 4.91898C13.5263 4.08607 13.0149 3.33079 12.3714 2.69686C11.7279 2.06293 10.9651 1.56294 10.127 1.22584C9.28897 0.888742 8.39238 0.721229 7.48916 0.733001C6.58593 0.744772 5.69401 0.935594 4.86504 1.29442C4.03606 1.65324 3.2865 2.17294 2.65974 2.82343C2.03299 3.47392 1.54149 4.24227 1.2137 5.084C0.88592 5.92573 0.728361 6.82412 0.75015 7.72716C0.897462 8.92791 1.34225 10.0729 2.04415 11.0582C2.68031 12.0124 3.3905 12.9152 4.16815 13.7582C5.23432 14.9253 6.37326 16.0238 7.57815 17.0472" fill="var(--fill-0, #FF832A)"/>
<path id="Trazado 2005" d="M10.5791 7.50781C10.5791 8.10116 10.4032 8.68117 10.0735 9.17452C9.74387 9.66787 9.27534 10.0524 8.72716 10.2794C8.17898 10.5065 7.57578 10.5659 6.99384 10.4502C6.41189 10.3344 5.87734 10.0487 5.45779 9.62914C5.03823 9.20958 4.75251 8.67503 4.63675 8.09309C4.52099 7.51114 4.58041 6.90794 4.80747 6.35976C5.03454 5.81159 5.41905 5.34305 5.9124 5.0134C6.40575 4.68376 6.98577 4.50781 7.57911 4.50781C8.37476 4.50781 9.13782 4.82388 9.70042 5.38649C10.263 5.9491 10.5791 6.71216 10.5791 7.50781ZM9.83111 7.50781C9.83111 7.06221 9.69897 6.62662 9.45141 6.25611C9.20385 5.88561 8.85197 5.59684 8.44029 5.42632C8.02861 5.25579 7.57561 5.21117 7.13857 5.2981C6.70153 5.38504 6.30008 5.59962 5.98499 5.9147C5.66991 6.22979 5.45533 6.63124 5.3684 7.06828C5.28147 7.50531 5.32608 7.95832 5.49661 8.37C5.66713 8.78168 5.9559 9.13356 6.32641 9.38112C6.69691 9.62868 7.13251 9.76081 7.57811 9.76081C7.8744 9.76134 8.16788 9.70342 8.44175 9.59037C8.71562 9.47732 8.96451 9.31136 9.17416 9.10199C9.3838 8.89262 9.5501 8.64395 9.66351 8.37023C9.77693 8.09651 9.83524 7.8031 9.83511 7.50681" fill="var(--fill-0, #FF832A)"/>
</g>
</svg>
