<svg preserveAspectRatio="none" width="100%" height="100%" overflow="visible" style="display: block;" viewBox="0 0 121.902 121.902" fill="none" xmlns="http://www.w3.org/2000/svg">
<g id="Grupo 19">
<path id="Trazado 27" d="M121.902 60.927C121.907 72.9831 118.336 84.7698 111.642 94.7963C104.947 104.823 95.4292 112.639 84.2922 117.256C73.1551 121.873 60.8991 123.083 49.0741 120.734C37.2491 118.384 26.3865 112.581 17.86 104.058C9.33352 95.5343 3.52628 84.6737 1.17275 72.8496C-1.18078 61.0254 0.025138 48.7689 4.63798 37.6302C9.25081 26.4915 17.0634 16.971 27.0875 10.2728C37.1116 3.57459 48.897 -0.000393842 60.9531 8.21876e-07C77.1148 -0.0026516 92.6156 6.41487 104.046 17.8408C115.476 29.2668 121.899 44.7653 121.902 60.927ZM115.935 60.927C115.939 50.0512 112.718 39.4185 106.679 30.3736C100.639 21.3287 92.0534 14.278 82.0066 10.1132C71.9599 5.94848 60.9037 4.85673 50.2364 6.97609C39.5691 9.09545 29.7699 14.3307 22.0782 22.0197C14.3866 29.7087 9.14792 39.5061 7.02487 50.1727C4.90183 60.8392 5.98975 71.8958 10.1511 81.944C14.3123 91.9922 21.3601 100.581 30.4029 106.623C39.4457 112.665 50.0773 115.89 60.9531 115.89C68.1722 115.891 75.321 114.471 81.9912 111.71C88.6614 108.948 94.7223 104.9 99.8281 99.7966C104.934 94.6929 108.984 88.6335 111.748 81.9644C114.512 75.2953 115.936 68.1472 115.937 60.928" fill="var(--fill-0, #FF832A)"/>
<path id="Trazado 28" d="M27.3841 66.742C22.9651 62.327 23.7011 55.324 27.7221 51.337C29.7564 49.2873 32.5131 48.1168 35.4007 48.0766C38.2882 48.0364 41.0765 49.1298 43.1671 51.122L53.7261 61.566L78.1721 36.812C80.2077 34.6589 83.0138 33.4007 85.9756 33.3132C88.9373 33.2256 91.8129 34.3159 93.9721 36.345C98.2321 40.319 98.9211 47.552 94.4971 52.03L61.7571 85.175C57.5831 89.401 50.5511 89.883 46.2981 85.635L27.3841 66.742ZM31.9411 62.962L49.8761 80.902C52.3111 83.337 55.5911 82.968 57.9431 80.586L89.9171 48.199C90.4079 47.7324 90.8015 47.1733 91.0754 46.554C91.3492 45.9346 91.4978 45.2671 91.5126 44.5901C91.5273 43.9131 91.408 43.2398 91.1615 42.609C90.9149 41.9783 90.5461 41.4026 90.0761 40.915C89.6174 40.4148 89.0631 40.0117 88.4459 39.7295C87.8287 39.4473 87.1612 39.2917 86.4829 39.2719C85.8045 39.2522 85.1291 39.3686 84.4965 39.6144C83.864 39.8602 83.2871 40.2304 82.8001 40.703L55.7271 67.947C55.1898 68.4809 54.463 68.7806 53.7056 68.7806C52.9481 68.7806 52.2214 68.4809 51.6841 67.947L39.1811 55.504C38.1823 54.5972 36.8701 54.114 35.5217 54.1566C34.1734 54.1991 32.8943 54.764 31.9546 55.7319C31.0149 56.6999 30.4882 57.9952 30.4857 59.3442C30.4832 60.6933 31.005 61.9905 31.9411 62.962Z" fill="var(--fill-0, #FF832A)"/>
</g>
</svg>
