<svg preserveAspectRatio="none" width="100%" height="100%" overflow="visible" style="display: block;" viewBox="0 0 16.8438 16.8481" fill="none" xmlns="http://www.w3.org/2000/svg">
<g id="Grupo 774">
<path id="Trazado 2002" d="M15.5873 15.6342C15.1613 16.0592 14.6481 16.3866 14.0832 16.5938C13.5182 16.801 12.915 16.883 12.3153 16.8342C10.3366 16.6236 8.45027 15.8871 6.8523 14.7012C3.96327 12.7501 1.73439 9.96822 0.460301 6.72323C0.197904 5.9873 0.045595 5.21665 0.00830078 4.43623C-0.0282547 3.86319 0.0562297 3.28888 0.256259 2.75065C0.456287 2.21241 0.76738 1.72231 1.1693 1.31223L2.1463 0.444231C2.50707 0.134844 2.97337 -0.0233026 3.44791 0.00278167C3.92246 0.028866 4.36861 0.237167 4.6933 0.584231L6.0523 2.31423C6.38842 2.66196 6.57854 3.12525 6.58357 3.60885C6.58859 4.09245 6.40813 4.5596 6.0793 4.91423L4.9793 6.04923C6.08246 8.67953 8.1763 10.7701 10.8083 11.8692C11.2353 11.4642 11.6143 11.0372 12.0683 10.6692C12.4071 10.3979 12.8314 10.2558 13.2653 10.2682C13.6992 10.2807 14.1146 10.4469 14.4373 10.7372L16.3053 12.1842C16.6496 12.5366 16.8428 13.0095 16.8438 13.5022C16.8447 13.9949 16.6533 14.4685 16.3103 14.8222L15.5873 15.6342ZM14.0293 11.2742C13.8222 11.0873 13.5565 10.9784 13.2778 10.9662C12.9992 10.9539 12.7249 11.0392 12.5023 11.2072C12.0323 11.6072 11.6103 12.0612 11.1683 12.4902C11.1088 12.5543 11.0299 12.5971 10.9438 12.6121C10.8576 12.6271 10.769 12.6134 10.6913 12.5732C9.24547 11.9927 7.93192 11.1258 6.82953 10.0248C5.72714 8.92381 4.85868 7.61133 4.2763 6.16623C4.23399 6.09519 4.21536 6.01254 4.22308 5.93022C4.23081 5.84789 4.26451 5.77016 4.3193 5.70823L5.5193 4.48223C5.73285 4.26257 5.85658 3.97102 5.8662 3.66481C5.87582 3.35861 5.77064 3.05987 5.5713 2.82723L4.1893 1.05523C4.08561 0.942393 3.96047 0.851355 3.8212 0.787441C3.68192 0.723527 3.53129 0.688018 3.37813 0.68299C3.22497 0.677962 3.07235 0.703516 2.92918 0.758159C2.78601 0.812801 2.65516 0.895436 2.5443 1.00123L1.6873 1.76423C1.07039 2.38842 0.724385 3.23063 0.724301 4.10823C0.8121 5.91662 1.41284 7.66265 2.4563 9.14223C3.83844 11.2599 5.65112 13.0627 7.7763 14.4332C8.72096 15.0519 9.75126 15.5286 10.8343 15.8482C11.4122 16.015 12.009 16.1074 12.6103 16.1232C13.07 16.1427 13.5287 16.0655 13.9567 15.8967C14.3847 15.7279 14.7726 15.4712 15.0953 15.1432L15.8343 14.3002C16.0355 14.082 16.1487 13.797 16.152 13.5002C16.1554 13.2034 16.0486 12.9159 15.8523 12.6932L14.0293 11.2742Z" fill="var(--fill-0, #FF832A)"/>
</g>
</svg>
