<svg preserveAspectRatio="none" width="100%" height="100%" overflow="visible" style="display: block;" viewBox="0 0 189.029 52.274" fill="none" xmlns="http://www.w3.org/2000/svg">
<g id="Grupo 785" opacity="0.45">
<path id="Trazado 2011" d="M163.265 0.754C158.17 0.754791 153.19 2.26629 148.954 5.09736C144.718 7.92843 141.417 11.9519 139.468 16.6591C137.519 21.3662 137.01 26.5456 138.004 31.5423C138.999 36.5391 141.452 41.1287 145.055 44.7308C148.658 48.333 153.248 50.7859 158.245 51.7794C163.242 52.773 168.421 52.2624 173.128 50.3125C177.835 48.3625 181.858 45.0606 184.688 40.8243C187.518 36.5881 189.029 31.6077 189.029 26.513C189.028 23.1299 188.362 19.78 187.067 16.6545C185.772 13.529 183.874 10.6891 181.482 8.2971C179.089 5.90506 176.249 4.00767 173.123 2.71325C169.998 1.41883 166.648 0.753738 163.265 0.754ZM180.353 28.094C179.999 31.8842 178.396 35.4493 175.794 38.2284C173.193 41.0075 169.741 42.8427 165.983 43.4452C162.224 44.0478 158.372 43.3835 155.032 41.5568C151.692 39.7302 149.055 36.8449 147.535 33.3551C146.014 29.8653 145.698 25.969 146.634 22.2794C147.571 18.5898 149.708 15.3164 152.708 12.9742C155.709 10.6321 159.403 9.35419 163.21 9.34166C167.017 9.32913 170.719 10.5827 173.736 12.905L169.745 18.087C167.956 16.7084 165.774 15.9353 163.517 15.8797C161.259 15.824 159.042 16.4888 157.188 17.7775C155.333 19.0663 153.937 20.9121 153.202 23.0475C152.467 25.1829 152.43 27.4969 153.099 29.6542C153.767 31.8115 155.105 33.7 156.918 35.0459C158.732 36.3919 160.927 37.1254 163.185 37.1402C165.443 37.155 167.648 36.4503 169.479 35.1282C171.31 33.8061 172.672 31.9353 173.369 29.787H163.269L163.262 23.245H180.454C180.454 24.934 180.486 26.508 180.354 28.098" fill="var(--fill-0, white)"/>
<path id="Trazado 2012" d="M37.1775 10.868C33.9155 10.455 30.4505 9.939 27.3775 11.061C23.4325 12.501 21.7215 16.18 21.7115 20.283L21.6965 26.046H15.1815V33.467H21.7015L21.6965 51.416C15.3035 50.4023 9.5275 47.0159 5.52078 41.9321C1.51406 36.8483 -0.42888 30.4408 0.0795169 23.9879C0.587914 17.535 3.51028 11.5108 8.26368 7.11721C13.0171 2.72358 19.2521 0.283387 25.725 0.283387C32.198 0.283387 38.433 2.72358 43.1864 7.11721C47.9398 11.5108 50.8622 17.535 51.3706 23.9879C51.879 30.4408 49.936 36.8483 45.9293 41.9321C41.9226 47.0159 36.1466 50.4023 29.7535 51.416V33.463H35.7345L36.8735 26.043H29.7525L29.7945 20.622C29.8005 20.1714 29.8955 19.7264 30.0739 19.3126C30.2523 18.8988 30.5107 18.5243 30.8342 18.2106C31.1577 17.897 31.54 17.6503 31.9592 17.4847C32.3783 17.3192 32.826 17.2381 33.2765 17.246L37.1765 17.207L37.1775 10.868Z" fill="var(--fill-0, white)"/>
<path id="Trazado 2013" d="M122.157 25.757C122.158 30.8529 120.648 35.8347 117.818 40.0725C114.988 44.3103 110.965 47.6136 106.257 49.5647C101.55 51.5158 96.369 52.0271 91.3709 51.0339C86.3727 50.0406 81.7814 47.5875 78.1775 43.9847C74.5736 40.3819 72.119 35.7913 71.1242 30.7935C70.1294 25.7956 70.6391 20.615 72.5888 15.9069C74.5384 11.1987 77.8405 7.1744 82.0774 4.34299C86.3143 1.51157 91.2957 0.000198154 96.3915 1.74972e-07C103.224 -0.000795537 109.776 2.7124 114.608 7.54275C119.44 12.3731 122.155 18.9249 122.157 25.757ZM105.88 41.93C107.509 41.558 108.996 40.7246 110.164 39.5296C111.333 38.3345 112.132 36.8283 112.467 35.191C112.709 34.074 112.832 32.9341 112.832 31.791V19.721C112.837 18.4677 112.691 17.2182 112.397 16C111.994 14.2936 111.087 12.7479 109.793 11.5643C108.5 10.3807 106.88 9.61398 105.145 9.364C103.744 9.15117 102.33 9.05085 100.914 9.064H91.4675C90 9.04326 88.5335 9.1537 87.0855 9.394C85.3556 9.67501 83.7505 10.4709 82.4797 11.6779C81.2088 12.8848 80.3313 14.4468 79.9616 16.16C79.6915 17.3645 79.5573 18.5956 79.5615 19.83L79.5715 31.88C79.5619 33.2059 79.7394 34.5266 80.0985 35.803C80.5087 37.2845 81.3066 38.6297 82.41 39.7001C83.5134 40.7704 84.8823 41.5271 86.3755 41.892C87.6468 42.2077 88.9527 42.362 90.2626 42.351H102.017C103.316 42.364 104.613 42.2203 105.879 41.923" fill="var(--fill-0, white)"/>
<path id="Trazado 2014" d="M101.072 39.375L94.6196 39.407C92.6026 39.417 90.6606 39.407 88.6466 39.247C85.7096 39.017 83.4205 37.362 82.8625 34.447C82.624 33.0841 82.5168 31.7014 82.5426 30.318V21.191C82.5159 19.8111 82.6187 18.4317 82.8496 17.071C83.0299 15.9662 83.5336 14.9397 84.2969 14.121C85.0603 13.3023 86.0491 12.7281 87.1385 12.471C88.1745 12.2215 89.237 12.0989 90.3025 12.106L101.913 12.099C102.98 12.0908 104.045 12.2008 105.089 12.427C106.154 12.6427 107.135 13.1613 107.914 13.9207C108.692 14.68 109.235 15.6478 109.478 16.708C109.735 17.8504 109.859 19.019 109.845 20.19L109.851 31.045C109.867 32.2434 109.751 33.4399 109.506 34.613C109.277 35.7227 108.722 36.7388 107.912 37.531C107.102 38.3232 106.074 38.8553 104.96 39.059C103.677 39.2894 102.375 39.3959 101.072 39.375ZM107.11 16.819C107.11 16.4234 106.992 16.0368 106.772 15.7079C106.553 15.379 106.24 15.1226 105.875 14.9712C105.509 14.8199 105.107 14.7803 104.719 14.8574C104.331 14.9346 103.975 15.1251 103.695 15.4048C103.416 15.6845 103.225 16.0409 103.148 16.4288C103.071 16.8168 103.11 17.2189 103.262 17.5844C103.413 17.9498 103.669 18.2622 103.998 18.4819C104.327 18.7017 104.714 18.819 105.11 18.819C105.64 18.819 106.149 18.6083 106.524 18.2332C106.899 17.8581 107.11 17.3494 107.11 16.819ZM104.773 25.719C104.773 24.0246 104.271 22.3681 103.33 20.959C102.389 19.5499 101.051 18.4515 99.4856 17.8028C97.9203 17.154 96.1978 16.984 94.5358 17.3143C92.8739 17.6445 91.3472 18.4602 90.1488 19.6582C88.9505 20.8561 88.1343 22.3825 87.8034 24.0443C87.4726 25.7061 87.642 27.4287 88.2902 28.9943C88.9384 30.5598 90.0363 31.898 91.4451 32.8396C92.8538 33.7811 94.5101 34.2838 96.2045 34.284C97.3295 34.2843 98.4435 34.0629 99.483 33.6326C100.522 33.2023 101.467 32.5715 102.263 31.7761C103.058 30.9808 103.689 30.0365 104.12 28.9972C104.551 27.9579 104.772 26.844 104.773 25.719Z" fill="var(--fill-0, white)"/>
<path id="Trazado 2015" d="M101.76 25.728C101.76 26.8272 101.434 27.9017 100.824 28.8159C100.214 29.73 99.3459 30.4425 98.3305 30.8634C97.3151 31.2843 96.1977 31.3947 95.1197 31.1805C94.0416 30.9663 93.0512 30.4372 92.2739 29.6601C91.4965 28.883 90.967 27.8929 90.7525 26.8149C90.5379 25.7368 90.6478 24.6194 91.0684 23.6039C91.4889 22.5884 92.2011 21.7204 93.115 21.1097C94.0289 20.499 95.1034 20.173 96.2025 20.173C96.9322 20.1729 97.6547 20.3165 98.3288 20.5955C99.0029 20.8746 99.6155 21.2838 100.132 21.7996C100.648 22.3154 101.057 22.9279 101.336 23.6019C101.616 24.2759 101.759 24.9984 101.76 25.728Z" fill="var(--fill-0, white)"/>
</g>
</svg>
