<svg preserveAspectRatio="none" width="100%" height="100%" overflow="visible" style="display: block;" viewBox="0 0 174.33 107.625" fill="none" xmlns="http://www.w3.org/2000/svg">
<g id="Grupo 17">
<path id="Trazado 26" d="M136.037 5.77108L149.263 0.512083C149.958 0.186672 150.714 0.012351 151.481 0.000632794C152.248 -0.0110854 153.009 0.140065 153.713 0.444104C154.417 0.748142 155.049 1.19815 155.567 1.76441C156.085 2.33067 156.476 3.0003 156.716 3.72908L163.3 20.5431C163.493 21.1611 163.44 21.8296 163.153 22.4098C162.866 22.9899 162.366 23.4373 161.758 23.6591C161.432 23.7772 161.086 23.8286 160.739 23.8102C160.393 23.7918 160.054 23.704 159.743 23.5519C159.431 23.3998 159.153 23.1866 158.926 22.925C158.698 22.6634 158.525 22.3587 158.418 22.0291L151.718 5.06308L137.641 10.6261L155.169 55.0431L169.248 49.5111L162.858 33.2631C162.624 32.6437 162.64 31.9573 162.903 31.3495C163.166 30.7417 163.656 30.2604 164.268 30.0075C164.88 29.7546 165.566 29.7502 166.182 29.995C166.797 30.2399 167.293 30.7148 167.564 31.3191L173.91 47.3431C175.141 50.4521 173.556 53.3151 170.583 54.4811L157.171 59.7381C154.966 60.6031 152.929 59.8771 151.163 58.3281L141.314 64.6491C142.1 66.4035 142.374 68.3443 142.104 70.2476C141.835 72.151 141.033 73.9395 139.792 75.407C138.55 76.8745 136.919 77.9613 135.086 78.5419C133.254 79.1226 131.294 79.1736 129.434 78.6891C129.346 80.137 128.949 81.5493 128.271 82.8315C127.593 84.1138 126.649 85.2364 125.502 86.1243C124.354 87.0121 123.031 87.6447 121.62 87.9798C120.208 88.3149 118.742 88.3446 117.318 88.0671C117.287 89.6646 116.883 91.2328 116.139 92.6465C115.394 94.0602 114.329 95.2802 113.029 96.2091C111.661 97.1584 110.085 97.7663 108.433 97.9818C106.782 98.1974 105.103 98.0144 103.537 97.4481C103.333 99.2157 102.673 100.9 101.62 102.334C100.567 103.768 99.158 104.903 97.5326 105.627C95.9071 106.35 94.1211 106.638 92.3507 106.461C90.5803 106.283 88.8867 105.648 87.437 104.616L83.463 101.757L80.72 104.827C79.4716 106.146 77.8518 107.054 76.0754 107.43C74.2991 107.807 72.4502 107.635 70.774 106.937C69.1184 106.287 67.6839 105.176 66.6405 103.736C65.5971 102.296 64.9885 100.587 64.887 98.8111C63.632 98.9479 62.3623 98.8288 61.1547 98.461C59.9471 98.0931 58.8267 97.4842 57.8612 96.6709C56.8956 95.8577 56.1051 94.857 55.5373 93.7295C54.9696 92.602 54.6364 91.371 54.558 90.1111C53.3031 90.2384 52.0355 90.1105 50.8315 89.7351C49.6274 89.3597 48.5117 88.7445 47.5516 87.9265C46.5916 87.1085 45.807 86.1048 45.245 84.9756C44.6831 83.8464 44.3555 82.6152 44.282 81.3561C42.5901 81.5382 40.8806 81.2532 39.3392 80.5322C37.7979 79.8111 36.4835 78.6815 35.539 77.2661C34.5302 75.7691 33.9835 74.0089 33.9666 72.2038C33.9497 70.3988 34.4634 68.6286 35.444 67.1131L22.556 58.9231C21.8515 59.48 21.021 59.8554 20.1375 60.0162C19.254 60.1769 18.3445 60.1182 17.489 59.8451L3.54596 54.3591C1.08896 53.3931 -0.774036 50.5961 0.320964 47.8191L17.891 3.26108C19.086 0.229083 22.331 -0.610917 25.1 0.496083L38.734 5.92908C39.8579 6.41821 40.7705 7.292 41.3081 8.39353C41.8457 9.49507 41.9729 10.7522 41.667 11.9391C44.034 12.7971 46.478 14.4631 49.093 14.5701L62.829 15.1361C66.9408 15.2574 71.0117 15.9898 74.908 17.3091L77.836 14.4691C79.2691 13.0393 81.0188 11.9671 82.9434 11.3393C84.868 10.7114 86.9134 10.5455 88.914 10.8551L98.652 12.3861C99.2902 12.4872 99.8659 12.8279 100.262 13.3386C100.658 13.8493 100.844 14.4918 100.783 15.1351C100.748 15.4914 100.64 15.8366 100.465 16.1488C100.29 16.461 100.052 16.7335 99.7661 16.9487C99.4801 17.164 99.1525 17.3174 98.804 17.3992C98.4556 17.4811 98.0939 17.4895 97.742 17.4241L88.6 15.9411C87.1945 15.6853 85.7469 15.7958 84.3965 16.2619C83.0461 16.7279 81.8385 17.5339 80.89 18.6021C73.7316 25.9199 65.839 32.4815 57.337 38.1831C56.9319 38.4728 56.6313 38.8856 56.48 39.3601C56.2 41.1601 61.408 44.7601 67.58 42.6241C71.8617 41.0711 75.7668 38.6304 79.039 35.4621C81.939 32.7271 85.582 32.7621 88.332 35.6431C91.6796 39.199 95.8621 41.8629 100.5 43.393C105.138 44.923 110.085 45.2709 114.891 44.4051C115.58 44.3759 116.263 44.5471 116.857 44.8981L138.157 60.6101L149.1 53.5681L134.567 16.7561L128.1 19.1691C124.623 20.5828 120.832 21.0403 117.119 20.4941L109.451 19.2461C108.807 19.0704 108.258 18.6501 107.92 18.0749C107.583 17.4996 107.483 16.8151 107.643 16.1676C107.804 15.52 108.211 14.9608 108.778 14.6094C109.345 14.2581 110.027 14.1424 110.678 14.2871L117.496 15.3761C119.856 15.8276 122.292 15.6867 124.584 14.9661L132.755 11.9881C132.409 10.7293 132.555 9.38584 133.164 8.2311C133.773 7.07635 134.8 6.19705 136.034 5.77208M22.626 4.98908L5.07696 49.5451L19.262 55.1291L36.811 10.5741L22.626 4.98908ZM116.367 82.2711C117.403 82.993 118.672 83.2997 119.923 83.1304C121.174 82.9612 122.316 82.3283 123.123 81.3571C124.448 79.8121 125.071 76.5271 123.152 75.0181L114.385 68.1241C114.127 67.9057 113.915 67.6385 113.761 67.3378C113.607 67.037 113.514 66.7088 113.488 66.372C113.461 66.0351 113.502 65.6964 113.607 65.3753C113.712 65.0542 113.879 64.7571 114.1 64.5011C114.542 64.0194 115.149 63.7219 115.801 63.668C116.453 63.614 117.101 63.8076 117.616 64.2101L128.793 72.7591C129.838 73.6161 131.18 74.0231 132.524 73.8905C133.869 73.758 135.106 73.0966 135.963 72.0521C136.82 71.0075 137.227 69.6653 137.094 68.3207C136.962 66.976 136.301 65.7391 135.256 64.8821L114.671 49.6291C108.985 50.4046 103.196 49.779 97.8072 47.8068C92.4183 45.8346 87.593 42.5755 83.751 38.3131C80.6856 41.0308 77.3576 43.437 73.816 45.4961C67.016 49.1731 59.653 49.8531 53.769 44.6721C52.911 43.9523 52.2467 43.0295 51.8362 41.9875C51.4258 40.9456 51.2824 39.8176 51.419 38.7061C51.5765 37.6619 51.9679 36.6669 52.5639 35.7952C53.1599 34.9235 53.9451 34.1977 54.861 33.6721C60.4333 29.9805 65.7023 25.8504 70.618 21.3211L65.754 20.4801L52.818 19.8291C50.39 19.7061 47.89 20.0231 45.637 19.1011L39.837 16.7311L24.966 54.3951L38.717 63.1091L42.938 58.1831C44.2043 56.902 45.8146 56.0152 47.5743 55.6299C49.3339 55.2446 51.1675 55.3773 52.8533 56.012C54.5391 56.6466 56.005 57.7561 57.0736 59.2062C58.1423 60.6563 58.7679 62.3849 58.875 64.1831C60.1281 64.0495 61.3952 64.1711 62.6001 64.5405C63.8049 64.9099 64.9225 65.5194 65.8854 66.3324C66.8483 67.1453 67.6366 68.1448 68.2029 69.2707C68.7691 70.3965 69.1015 71.6253 69.18 72.8831C70.4287 72.7514 71.6911 72.8739 72.8912 73.2433C74.0913 73.6127 75.2042 74.2213 76.1627 75.0323C77.1212 75.8434 77.9056 76.8402 78.4685 77.9626C79.0314 79.085 79.3612 80.3098 79.438 81.5631C81.3814 81.3879 83.3318 81.8137 85.0254 82.7828C86.7191 83.752 88.0743 85.2178 88.908 86.9821C89.7321 88.7849 89.9673 90.8015 89.5803 92.7455C89.1933 94.6896 88.2036 96.4623 86.752 97.8121L90.487 100.495C91.4486 101.167 92.6122 101.487 93.7822 101.403C94.9522 101.318 96.0574 100.833 96.912 100.029C98.412 98.6291 99.468 95.2701 97.589 93.7461L92.346 89.4931C92.0524 89.2795 91.8079 89.0056 91.6287 88.6898C91.4496 88.374 91.3399 88.0236 91.3072 87.662C91.2744 87.3004 91.3193 86.936 91.4388 86.5932C91.5582 86.2504 91.7496 85.937 92 85.6741C92.4716 85.2019 93.1055 84.9273 93.7726 84.9063C94.4396 84.8854 95.0896 85.1195 95.59 85.5611L104.09 92.0021C105.09 92.7278 106.318 93.0684 107.549 92.9613C108.78 92.8542 109.93 92.3066 110.79 91.4191C112.379 89.8341 113.014 86.4011 110.998 84.8071L103.198 78.6431C102.698 78.2094 102.39 77.5948 102.342 76.9343C102.294 76.2738 102.51 75.6213 102.943 75.1201C103.166 74.8585 103.439 74.644 103.746 74.4894C104.053 74.3348 104.387 74.2431 104.73 74.2197C105.073 74.1963 105.417 74.2417 105.742 74.3532C106.067 74.4648 106.367 74.6401 106.623 74.8691L116.367 82.2711ZM46.467 74.8221L52.806 67.3881C53.1488 66.956 53.4031 66.4606 53.5545 65.9302C53.7058 65.3997 53.7512 64.8447 53.6881 64.2968C53.625 63.7488 53.4545 63.2186 53.1865 62.7366C52.9184 62.2545 52.5581 61.8299 52.126 61.4871C51.6939 61.1443 51.1984 60.8899 50.668 60.7386C50.1376 60.5872 49.5826 60.5418 49.0346 60.6049C48.4867 60.6681 47.9565 60.8385 47.4744 61.1066C46.9924 61.3746 46.5678 61.735 46.225 62.1671L39.976 69.5461C39.3 70.4091 38.9897 71.5029 39.1121 72.5923C39.2344 73.6817 39.7794 74.6795 40.63 75.3711C41.4806 76.0627 42.5686 76.3928 43.66 76.2903C44.7515 76.1878 45.759 75.6609 46.466 74.8231M56.824 83.4781L63.01 76.2231C63.3837 75.8044 63.6696 75.3149 63.8506 74.7836C64.0316 74.2524 64.1041 73.6902 64.0637 73.1304C64.0233 72.5706 63.8709 72.0246 63.6155 71.5248C63.3601 71.025 63.0069 70.5816 62.5769 70.221C62.1468 69.8603 61.6488 69.5896 61.1122 69.4251C60.5756 69.2606 60.0114 69.2055 59.4531 69.2632C58.8948 69.3208 58.3538 69.49 57.8621 69.7607C57.3705 70.0314 56.9382 70.3981 56.591 70.8391L50.63 77.7961C50.2284 78.2013 49.9124 78.6832 49.7008 79.213C49.4892 79.7428 49.3863 80.3098 49.3983 80.8802C49.4102 81.4506 49.5367 82.0128 49.7703 82.5333C50.0039 83.0538 50.3398 83.522 50.758 83.9101C51.1774 84.2956 51.6712 84.5913 52.209 84.7791C52.7468 84.9669 53.3174 85.0428 53.8856 85.0022C54.4538 84.9616 55.0078 84.8052 55.5134 84.5428C56.019 84.2804 56.4657 83.9174 56.826 83.4761M67.35 91.9461L73.219 85.0661C73.6152 84.6494 73.9219 84.156 74.1201 83.6163C74.3183 83.0766 74.4039 82.5019 74.3715 81.9279C74.3391 81.3538 74.1895 80.7925 73.9318 80.2784C73.6742 79.7644 73.314 79.3086 72.8734 78.9392C72.4329 78.5697 71.9213 78.2944 71.3703 78.1302C70.8192 77.966 70.2404 77.9165 69.6695 77.9846C69.0985 78.0527 68.5476 78.237 68.0506 78.5262C67.5537 78.8154 67.1212 79.2033 66.78 79.6661L60.7 86.8291C60.3297 87.2547 60.0501 87.7514 59.8782 88.2887C59.7063 88.826 59.6457 89.3928 59.7002 89.9543C59.7546 90.5158 59.923 91.0603 60.195 91.5546C60.4669 92.0489 60.8368 92.4825 61.282 92.8291C63.26 94.3601 65.676 93.9071 67.349 91.9471M77.549 100.789L83.568 93.7121C84.3105 92.8888 84.6983 91.8058 84.647 90.6982C84.5957 89.5907 84.1095 88.5482 83.294 87.7971C82.4935 87.0609 81.4368 86.667 80.3498 86.6997C79.2628 86.7324 78.2317 87.1891 77.477 87.9721L71.041 95.4721C70.6619 95.8955 70.3726 96.3913 70.1904 96.9296C70.0083 97.468 69.9371 98.0376 69.9811 98.6042C70.0252 99.1708 70.1836 99.7226 70.4467 100.226C70.7099 100.73 71.0724 101.175 71.5123 101.535C71.9523 101.895 72.4605 102.161 73.0064 102.319C73.5523 102.477 74.1246 102.523 74.6886 102.454C75.2527 102.384 75.7969 102.201 76.2883 101.916C76.7797 101.631 77.2082 101.249 77.548 100.793" fill="var(--fill-0, #FF832A)"/>
</g>
</svg>
