<svg preserveAspectRatio="none" width="100%" height="100%" overflow="visible" style="display: block;" viewBox="0 0 18.034 15.013" fill="none" xmlns="http://www.w3.org/2000/svg">
<g id="Grupo 776">
<path id="Trazado 2003" d="M18.03 11.685C18.0243 12.5628 17.6743 13.4032 17.0553 14.0256C16.4363 14.648 15.5977 15.0025 14.72 15.013H3.315C2.433 15.002 1.59079 14.6442 0.970453 14.0172C0.350117 13.3901 0.0015075 12.5441 0 11.662L0 3.317C0.00690568 2.44678 0.353487 1.61369 0.965846 0.995354C1.57821 0.377017 2.40789 0.022359 3.278 0.007L14.684 0C15.572 0.00447777 16.4222 0.359546 17.0496 0.987905C17.677 1.61626 18.0308 2.46703 18.034 3.355L18.03 11.685ZM16.671 1.711C16.4273 1.4094 16.1193 1.16612 15.7694 0.99898C15.4196 0.831836 15.0367 0.745058 14.649 0.745H3.384C2.99606 0.744781 2.61302 0.831746 2.26321 0.99947C1.91339 1.16719 1.60575 1.41139 1.363 1.714L7.152 7.493C7.40523 7.73897 7.70451 7.93257 8.03267 8.06271C8.36084 8.19285 8.71146 8.25697 9.06445 8.25139C9.41743 8.24582 9.76585 8.17066 10.0898 8.03023C10.4136 7.8898 10.7067 7.68685 10.952 7.433L16.671 1.711ZM17.289 11.611V3.357C17.2865 3.01738 17.2158 2.68173 17.081 2.37L11.393 8.042C10.759 8.66525 9.90554 9.01449 9.0165 9.01449C8.12746 9.01449 7.274 8.66525 6.64 8.042L0.95 2.367C0.816462 2.69216 0.748494 3.04049 0.75 3.392V11.664C0.751992 12.3466 1.0215 13.0012 1.50069 13.4873C1.97987 13.9734 2.63053 14.2522 3.313 14.264L14.648 14.27C14.9965 14.2705 15.3416 14.202 15.6634 14.0685C15.9852 13.9349 16.2774 13.7388 16.523 13.4917C16.7687 13.2446 16.9629 12.9512 17.0946 12.6286C17.2262 12.306 17.2926 11.9604 17.29 11.612" fill="var(--fill-0, #FF832A)"/>
</g>
</svg>
