<svg preserveAspectRatio="none" width="100%" height="100%" overflow="visible" style="display: block;" viewBox="0 0 132.099 124.991" fill="none" xmlns="http://www.w3.org/2000/svg">
<g id="Grupo 814">
<path id="Trazado 2043" d="M93.8863 112.42C93.9183 112.716 93.8884 113.016 93.7985 113.3C93.7086 113.584 93.5607 113.846 93.3641 114.07C93.1675 114.293 92.9265 114.474 92.6565 114.599C92.3864 114.725 92.0932 114.793 91.7954 114.8C91.4977 114.806 91.2018 114.75 90.9267 114.636C90.6516 114.522 90.4031 114.352 90.1972 114.137C89.9913 113.922 89.8323 113.666 89.7304 113.386C89.6285 113.106 89.5859 112.808 89.6053 112.511C89.5053 99.0021 85.2893 86.4021 73.2783 79.2641C67.3158 75.7621 60.5539 73.8497 53.6403 73.7101C53.34 73.7369 53.0373 73.7025 52.7506 73.6091C52.4639 73.5157 52.1991 73.3651 51.9722 73.1665C51.7453 72.9679 51.561 72.7254 51.4304 72.4536C51.2998 72.1818 51.2256 71.8864 51.2123 71.5851C51.1908 71.0219 51.3863 70.4719 51.7584 70.0486C52.1306 69.6253 52.651 69.361 53.2123 69.3101C60.2867 69.1518 67.2007 67.1717 73.2863 63.5611C85.1403 56.3891 89.3383 43.9611 89.4353 30.5191C89.4096 30.2225 89.4457 29.9238 89.5414 29.6418C89.637 29.3599 89.7901 29.1009 89.991 28.8811C90.1919 28.6614 90.4362 28.4858 90.7085 28.3653C90.9807 28.2448 91.275 28.1821 91.5728 28.1812C91.8705 28.1803 92.1651 28.2412 92.4381 28.36C92.7111 28.4789 92.9565 28.653 93.1587 28.8715C93.3609 29.0901 93.5156 29.3481 93.613 29.6295C93.7103 29.9109 93.7482 30.2094 93.7243 30.5061C93.6684 35.8706 94.4919 41.208 96.1623 46.3061C101.273 61.3451 114.803 68.6691 130.144 69.3441C131.223 69.3921 132.014 70.6621 132.098 71.4441C132.111 72.008 131.906 72.555 131.524 72.9706C131.143 73.3861 130.615 73.6379 130.052 73.6731C115.805 74.1951 102.666 81.0731 97.1143 94.6171C94.8962 100.286 93.8006 106.331 93.8883 112.417M91.5883 96.5901C92.9365 91.96 95.1969 87.6462 98.2366 83.9024C101.276 80.1587 105.034 77.0605 109.288 74.7901C111.787 73.4863 114.37 72.3485 117.018 71.3841C113.455 70.1883 110.044 68.5772 106.857 66.5841C99.468 61.8758 94.0399 54.6443 91.5823 46.2341C87.3293 59.3841 78.7723 67.0011 66.1293 71.4081C69.7582 72.6472 73.2303 74.3051 76.4753 76.3481C83.8563 81.0421 88.8603 88.0481 91.5863 96.5931" fill="var(--fill-0, #FF832A)"/>
<path id="Trazado 2044" d="M46.6983 38.7741C43.6153 45.8461 46.0173 50.8991 42.9383 51.0741C42.6484 51.0891 42.3585 51.0465 42.0851 50.9488C41.8118 50.8512 41.5605 50.7004 41.3456 50.5052C41.1308 50.31 40.9568 50.0742 40.8335 49.8115C40.7102 49.5487 40.6401 49.2641 40.6273 48.9741C40.6436 45.5436 40.0214 42.14 38.7923 38.9371C35.6663 31.4601 28.8613 28.0371 20.9043 27.6371C20.3517 27.6097 19.8307 27.3709 19.4492 26.9702C19.0676 26.5695 18.8547 26.0374 18.8543 25.4841C18.8649 24.9335 19.0888 24.4085 19.4788 24.0197C19.8689 23.631 20.3947 23.4088 20.9453 23.4001C29.7533 23.0261 37.0653 18.5731 39.5553 9.94512C40.2267 7.42583 40.5838 4.83312 40.6183 2.22612C40.6085 1.65856 40.8193 1.10933 41.2063 0.694108C41.5934 0.278887 42.1265 0.0300897 42.6933 0.00012207C42.977 -0.00278374 43.2584 0.0505313 43.5214 0.156989C43.7843 0.263446 44.0236 0.420938 44.2254 0.62037C44.4271 0.819802 44.5874 1.05722 44.6969 1.31893C44.8064 1.58063 44.8629 1.86143 44.8633 2.14512C44.9227 4.67242 45.2581 7.18566 45.8633 9.64012C48.1923 18.3471 55.5913 23.0051 64.4453 23.3961C65.0092 23.3933 65.5524 23.6079 65.9621 23.9953C66.3718 24.3827 66.6165 24.913 66.6453 25.4761C66.6622 25.7757 66.6182 26.0757 66.5158 26.3577C66.4135 26.6398 66.255 26.8982 66.0498 27.1173C65.8447 27.3363 65.5973 27.5114 65.3225 27.6321C65.0478 27.7527 64.7514 27.8164 64.4513 27.8191C56.7583 28.1191 49.8263 31.6131 46.7053 38.7741M42.6053 37.1741C44.884 31.9337 49.0781 27.7614 54.3303 25.5101C49.0876 23.2951 44.8851 19.1667 42.5773 13.9641C40.2594 19.1746 36.0461 23.3081 30.7923 25.5261C36.0824 27.7408 40.3128 31.9131 42.6003 37.1721" fill="var(--fill-0, #FF832A)"/>
<path id="Trazado 2045" d="M25.1453 124.675C24.7737 124.898 24.3452 125.007 23.9124 124.989C23.4796 124.971 23.0615 124.827 22.7093 124.575C20.9353 123.423 22.5263 118.832 19.8443 112.575C16.7233 105.293 9.85832 101.895 2.04432 101.525C1.51901 101.497 1.02185 101.279 0.64622 100.911C0.270591 100.543 0.042334 100.05 0.00431934 99.5251C-0.0137336 99.2442 0.0254958 98.9626 0.119625 98.6973C0.213754 98.4321 0.360819 98.1887 0.551889 97.982C0.742958 97.7753 0.974045 97.6096 1.23111 97.495C1.48819 97.3803 1.76587 97.3192 2.04732 97.3151C10.9323 96.8611 18.2983 92.4461 20.7293 83.7541C21.3837 81.23 21.7375 78.6373 21.7833 76.0301C21.785 75.4748 22.0011 74.9415 22.3867 74.5418C22.7723 74.1421 23.2974 73.9068 23.8523 73.8851C24.148 73.8899 24.4397 73.9534 24.7106 74.072C24.9815 74.1907 25.226 74.362 25.43 74.576C25.634 74.7901 25.7934 75.0426 25.8989 75.3188C26.0043 75.5951 26.0538 75.8896 26.0443 76.1851C26.0214 79.5972 26.663 82.9812 27.9333 86.1481C31.0153 93.2691 37.7523 96.9481 45.3983 97.2651C45.9796 97.2261 46.5532 97.4145 46.9982 97.7904C47.4432 98.1664 47.7247 98.7005 47.7833 99.2801C47.8145 99.5819 47.7827 99.8869 47.6899 100.176C47.5971 100.465 47.4452 100.731 47.2441 100.958C47.0429 101.185 46.7967 101.368 46.5212 101.495C46.2456 101.622 45.9467 101.691 45.6433 101.696C36.7743 102.063 29.3363 106.562 26.9103 115.243C25.6243 119.843 26.3103 123.769 25.1423 124.669M23.7343 111.248C26.0197 105.996 30.2255 101.816 35.4913 99.5631C30.2468 97.3506 26.043 93.2219 23.7363 88.0181C21.4185 93.2298 17.2064 97.3657 11.9533 99.5881C17.2175 101.843 21.4293 106.013 23.7373 111.254" fill="var(--fill-0, #FF832A)"/>
</g>
</svg>
