<svg preserveAspectRatio="none" width="100%" height="100%" overflow="visible" style="display: block;" viewBox="0 0 114.469 114.468" fill="none" xmlns="http://www.w3.org/2000/svg">
<g id="Grupo 816">
<path id="Trazado 2046" d="M114.468 57.211C114.473 68.5318 111.12 79.5997 104.833 89.0149C98.5472 98.43 89.61 105.769 79.1522 110.105C68.6944 114.44 57.1858 115.577 46.082 113.371C34.9781 111.165 24.7778 105.716 16.7713 97.7123C8.76468 89.7088 3.31146 79.5106 1.10132 68.4076C-1.10881 57.3046 0.0234082 45.7956 4.35479 35.3361C8.68617 24.8767 16.0221 15.9366 25.4349 9.64678C34.8476 3.35693 45.9142 -0.000195626 57.235 1.25859e-06C64.7496 -0.00157476 72.1909 1.47699 79.1341 4.35127C86.0772 7.22555 92.3863 11.4393 97.701 16.7518C103.016 22.0644 107.232 28.3717 110.109 35.3137C112.986 42.2557 114.467 49.6964 114.468 57.211ZM108.869 57.211C108.873 46.9985 105.849 37.0141 100.178 28.5206C94.5071 20.0272 86.4449 13.4063 77.0109 9.49521C67.5769 5.58416 57.195 4.5587 47.1782 6.54852C37.1614 8.53834 27.9596 13.4541 20.7368 20.6739C13.514 27.8938 8.59454 37.0936 6.60064 47.1096C4.60674 57.1256 5.62798 67.5079 9.53519 76.9435C13.4424 86.379 20.0601 94.4439 28.5512 100.118C37.0423 105.792 47.0255 108.821 57.238 108.821C70.9286 108.824 84.0595 103.388 93.7422 93.709C103.425 84.0303 108.866 70.9016 108.869 57.211Z" fill="var(--fill-0, #FF832A)"/>
<path id="Trazado 2047" d="M25.714 62.672C21.564 58.527 22.256 51.951 26.032 48.206C27.9424 46.2825 30.5305 45.1843 33.2412 45.1469C35.9519 45.1095 38.5693 46.1359 40.532 48.006L50.447 57.814L73.404 34.568C75.3155 32.5463 77.9505 31.365 80.7315 31.2829C83.5125 31.2008 86.2126 32.2246 88.24 34.13C89.2418 35.0633 90.0494 36.1851 90.6166 37.4313C91.1838 38.6774 91.4993 40.0233 91.5451 41.3916C91.5909 42.76 91.3661 44.1239 90.8835 45.4052C90.401 46.6865 89.6701 47.8598 88.733 48.858L57.99 79.98C54.07 83.948 47.467 84.4 43.474 80.412L25.714 62.672ZM29.993 59.123L46.833 75.969C49.12 78.256 52.2 77.909 54.408 75.669L84.432 45.257C84.8929 44.8188 85.2625 44.2938 85.5197 43.7122C85.7768 43.1305 85.9163 42.5038 85.9301 41.868C85.944 41.2322 85.8319 40.6 85.6004 40.0077C85.3688 39.4154 85.0224 38.8748 84.581 38.417C84.1503 37.9472 83.6298 37.5686 83.0502 37.3035C82.4707 37.0384 81.8438 36.8922 81.2068 36.8735C80.5697 36.8549 79.9354 36.9642 79.3413 37.1949C78.7472 37.4257 78.2055 37.7732 77.748 38.217L52.328 63.804C51.8233 64.3064 51.1402 64.5885 50.428 64.5885C49.7159 64.5885 49.0327 64.3064 48.528 63.804L36.791 52.12C35.8589 51.2388 34.6172 50.76 33.3347 50.7873C32.0522 50.8146 30.8321 51.3458 29.9383 52.2659C29.0445 53.186 28.5489 54.421 28.5587 55.7038C28.5686 56.9865 29.0832 58.2138 29.991 59.12" fill="var(--fill-0, #FF832A)"/>
</g>
</svg>
