<svg preserveAspectRatio="none" width="100%" height="100%" overflow="visible" style="display: block;" viewBox="0 0 111.138 111.138" fill="none" xmlns="http://www.w3.org/2000/svg">
<g id="Grupo 812">
<path id="Trazado 2033" d="M111.138 55.571C111.138 66.5614 107.878 77.3049 101.772 86.4429C95.6657 95.581 86.9869 102.703 76.833 106.909C66.679 111.114 55.506 112.214 44.7268 110.07C33.9476 107.926 24.0464 102.633 16.2751 94.8615C8.50384 87.09 3.2116 77.1885 1.06762 66.4092C-1.07636 55.63 0.0242095 44.457 4.23015 34.3032C8.4361 24.1494 15.5585 15.4708 24.6968 9.36493C33.835 3.25901 44.5786 7.11837e-09 55.569 0C62.8666 0.000131321 70.0927 1.43762 76.8347 4.2304C83.5767 7.02317 89.7026 11.1165 94.8627 16.2768C100.023 21.437 104.116 27.5631 106.908 34.3052C109.701 41.0473 111.138 48.2734 111.138 55.571ZM105.022 55.571C105.022 45.7898 102.121 36.2282 96.6869 28.0955C91.2526 19.9628 83.5287 13.6242 74.4919 9.88125C65.4552 6.13827 55.5115 5.15904 45.9182 7.06739C36.325 8.97573 27.513 13.6859 20.5967 20.6024C13.6804 27.5188 8.97037 36.3309 7.06222 45.9242C5.15406 55.5175 6.1335 65.4612 9.87666 74.4978C13.6198 83.5345 19.9586 91.2583 28.0914 96.6924C36.2242 102.127 45.7858 105.027 55.567 105.027C68.6834 105.027 81.2625 99.8161 90.537 90.5413C99.8116 81.2666 105.022 68.6874 105.022 55.571Z" fill="var(--fill-0, #FF832A)"/>
<path id="Trazado 2034" d="M73.193 42.199L57.393 58.033C57.0784 58.2714 56.7079 58.4253 56.317 58.48C55.8197 58.6307 55.2909 58.6444 54.7865 58.5196C54.2821 58.3948 53.8207 58.1362 53.451 57.771L31.775 36.104C31.2036 35.5539 30.8669 34.8042 30.8352 34.0117C30.8036 33.2191 31.0793 32.445 31.605 31.851C31.8636 31.5506 32.1794 31.3047 32.5339 31.1274C32.8884 30.9502 33.2747 30.8452 33.6701 30.8186C34.0656 30.792 34.4624 30.8443 34.8375 30.9724C35.2126 31.1005 35.5585 31.302 35.855 31.565L55.574 51.265L68.858 38.018C69.2651 37.6992 69.7504 37.4959 70.2632 37.4294C70.7759 37.3629 71.2971 37.4356 71.772 37.64C72.1991 37.807 72.5831 38.0679 72.8957 38.4033C73.2083 38.7388 73.4415 39.1403 73.5779 39.5781C73.7144 40.0158 73.7506 40.4787 73.684 40.9324C73.6174 41.3861 73.4496 41.8189 73.193 42.199Z" fill="var(--fill-0, #FF832A)"/>
<path id="Trazado 2035" d="M58.607 101.098C58.4444 101.843 58.0144 102.503 57.3983 102.953C56.7822 103.403 56.0225 103.612 55.263 103.54C54.5102 103.477 53.8085 103.133 53.2964 102.578C52.7843 102.023 52.4991 101.295 52.497 100.54L52.512 94.053C52.5442 93.3226 52.8421 92.6291 53.3496 92.1029C53.8571 91.5766 54.5393 91.2537 55.268 91.195C56.739 91.023 58.536 92.169 58.549 93.758L58.607 101.098Z" fill="var(--fill-0, #FF832A)"/>
<path id="Trazado 2036" d="M58.576 17.204C58.5312 17.8937 58.2415 18.5448 57.7591 19.0398C57.2767 19.5349 56.6334 19.8413 55.945 19.904C55.2528 20.0063 54.5467 19.8607 53.9515 19.4929C53.3563 19.1251 52.9102 18.5588 52.692 17.894C52.5802 17.5684 52.5054 17.2313 52.469 16.889L52.493 10.568C52.5027 9.79588 52.8076 9.05675 53.345 8.50225C53.8824 7.94775 54.6116 7.61991 55.383 7.586C55.7693 7.55136 56.1586 7.59372 56.5284 7.71062C56.8981 7.82753 57.241 8.01666 57.5372 8.26705C57.8334 8.51744 58.0769 8.82412 58.2536 9.16931C58.4304 9.51451 58.5369 9.89135 58.567 10.278L58.576 17.204Z" fill="var(--fill-0, #FF832A)"/>
<path id="Trazado 2037" d="M90.363 87.593C90.3234 88.1654 90.1219 88.7147 89.7821 89.177C89.4423 89.6393 88.978 89.9954 88.4435 90.204C87.909 90.4125 87.3263 90.4649 86.7632 90.355C86.2001 90.245 85.6798 89.9773 85.263 89.583L80.563 84.832C80.0602 84.2536 79.8022 83.5023 79.8436 82.737C79.8851 81.9718 80.2227 81.2527 80.785 80.732C81.3344 80.1833 82.0754 79.8696 82.8518 79.8569C83.6281 79.8442 84.379 80.1336 84.946 80.664L89.746 85.457C89.9875 85.7539 90.1667 86.0964 90.2729 86.4641C90.3791 86.8318 90.4101 87.2171 90.364 87.597" fill="var(--fill-0, #FF832A)"/>
<path id="Trazado 2038" d="M30.451 26.142C30.7525 26.4636 30.9777 26.8489 31.1099 27.2694C31.2422 27.6899 31.2781 28.1347 31.215 28.571C31.1606 29.1427 30.9432 29.6869 30.5887 30.1387C30.2342 30.5906 29.7574 30.9311 29.215 31.12C28.6457 31.3139 28.032 31.3365 27.45 31.1848C26.868 31.0332 26.3433 30.7141 25.941 30.267L21.718 26.048C21.1615 25.5265 20.8187 24.8168 20.7562 24.0566C20.6937 23.2965 20.9161 22.5403 21.38 21.935C22.295 20.752 24.36 20.167 25.546 21.33L30.451 26.142Z" fill="var(--fill-0, #FF832A)"/>
<path id="Trazado 2039" d="M94.18 58.58C93.5057 58.5965 92.8474 58.3735 92.322 57.9506C91.7965 57.5277 91.438 56.9322 91.31 56.27C91.2004 55.7286 91.2089 55.1698 91.335 54.632C91.4959 54.0871 91.8133 53.6015 92.2478 53.2355C92.6823 52.8694 93.2147 52.6391 93.779 52.573L101.048 52.539C101.773 52.6796 102.425 53.0736 102.886 53.6505C103.348 54.2274 103.589 54.9496 103.567 55.688C103.553 56.4177 103.269 57.1163 102.769 57.6482C102.269 58.18 101.589 58.5071 100.862 58.566L94.18 58.58Z" fill="var(--fill-0, #FF832A)"/>
<path id="Trazado 2040" d="M87.736 27.717L84.718 30.697C84.3424 30.9487 83.9197 31.1217 83.4754 31.2056C83.0312 31.2895 82.5745 31.2825 82.133 31.185C81.6738 31.0485 81.2508 30.8115 80.8946 30.4912C80.5385 30.1708 80.2582 29.7752 80.074 29.333C79.8654 28.8606 79.7915 28.3397 79.8605 27.8279C79.9295 27.3161 80.1387 26.8333 80.465 26.433L85.228 21.617C85.535 21.2996 85.9118 21.0582 86.3284 20.9119C86.745 20.7655 87.19 20.7183 87.628 20.774C88.0662 20.8106 88.4908 20.9438 88.8713 21.1641C89.2518 21.3843 89.5788 21.6862 89.8288 22.0479C90.0787 22.4096 90.2454 22.8223 90.3169 23.2561C90.3883 23.6899 90.3628 24.1342 90.242 24.557C90.1623 24.9245 90.0166 25.2745 89.812 25.59L88.39 27.065L87.736 27.717Z" fill="var(--fill-0, #FF832A)"/>
<path id="Trazado 2041" d="M17.417 58.532C14.957 58.648 12.601 58.627 10.205 58.545C9.49208 58.4747 8.83061 58.1424 8.34864 57.6124C7.86667 57.0823 7.59848 56.3924 7.596 55.676C7.58067 54.9563 7.81106 54.2529 8.24916 53.6817C8.68727 53.1106 9.30694 52.7057 10.006 52.534H17.442C18.1452 52.6778 18.7769 53.0603 19.2302 53.6168C19.6835 54.1732 19.9304 54.8693 19.929 55.587C19.9517 56.3024 19.7068 57.0006 19.2423 57.5451C18.7778 58.0897 18.127 58.4416 17.417 58.532Z" fill="var(--fill-0, #FF832A)"/>
<path id="Trazado 2042" d="M23.443 90.388C22.9415 90.3254 22.4633 90.1397 22.051 89.8475C21.6387 89.5552 21.3051 89.1655 21.08 88.713C20.8336 88.2257 20.7191 87.6823 20.748 87.137C20.777 86.5917 20.9483 86.0635 21.245 85.605L26.391 80.521C26.964 80.039 27.7034 79.8014 28.4499 79.8594C29.1964 79.9174 29.8903 80.2663 30.382 80.831C30.9224 81.3705 31.2317 82.0992 31.2444 82.8627C31.2571 83.6263 30.9722 84.3648 30.45 84.922L25.908 89.49C25.5975 89.8242 25.2122 90.08 24.7838 90.2365C24.3553 90.3929 23.8958 90.4456 23.443 90.39" fill="var(--fill-0, #FF832A)"/>
</g>
</svg>
